G04 #@! TF.GenerationSoftware,KiCad,Pcbnew,(6.0.10)*
G04 #@! TF.CreationDate,2024-05-09T20:32:42+03:00*
G04 #@! TF.ProjectId,iot-robots,696f742d-726f-4626-9f74-732e6b696361,rev?*
G04 #@! TF.SameCoordinates,Original*
G04 #@! TF.FileFunction,Legend,Top*
G04 #@! TF.FilePolarity,Positive*
%FSLAX46Y46*%
G04 Gerber Fmt 4.6, Leading zero omitted, Abs format (unit mm)*
G04 Created by KiCad (PCBNEW (6.0.10)) date 2024-05-09 20:32:42*
%MOMM*%
%LPD*%
G01*
G04 APERTURE LIST*
%ADD10C,0.150000*%
%ADD11C,0.120000*%
%ADD12O,1.700000X1.700000*%
%ADD13R,1.700000X1.700000*%
%ADD14R,1.600000X1.600000*%
%ADD15O,1.600000X1.600000*%
G04 APERTURE END LIST*
D10*
X118772380Y-116268333D02*
X118296190Y-116601666D01*
X118772380Y-116839761D02*
X117772380Y-116839761D01*
X117772380Y-116458809D01*
X117820000Y-116363571D01*
X117867619Y-116315952D01*
X117962857Y-116268333D01*
X118105714Y-116268333D01*
X118200952Y-116315952D01*
X118248571Y-116363571D01*
X118296190Y-116458809D01*
X118296190Y-116839761D01*
X118248571Y-115839761D02*
X118248571Y-115506428D01*
X118772380Y-115363571D02*
X118772380Y-115839761D01*
X117772380Y-115839761D01*
X117772380Y-115363571D01*
X118248571Y-114601666D02*
X118248571Y-114935000D01*
X118772380Y-114935000D02*
X117772380Y-114935000D01*
X117772380Y-114458809D01*
X117772380Y-113935000D02*
X118010476Y-113935000D01*
X117915238Y-114173095D02*
X118010476Y-113935000D01*
X117915238Y-113696904D01*
X118200952Y-114077857D02*
X118010476Y-113935000D01*
X118200952Y-113792142D01*
X117772380Y-113173095D02*
X118010476Y-113173095D01*
X117915238Y-113411190D02*
X118010476Y-113173095D01*
X117915238Y-112935000D01*
X118200952Y-113315952D02*
X118010476Y-113173095D01*
X118200952Y-113030238D01*
X119316666Y-103532380D02*
X118983333Y-103056190D01*
X118745238Y-103532380D02*
X118745238Y-102532380D01*
X119126190Y-102532380D01*
X119221428Y-102580000D01*
X119269047Y-102627619D01*
X119316666Y-102722857D01*
X119316666Y-102865714D01*
X119269047Y-102960952D01*
X119221428Y-103008571D01*
X119126190Y-103056190D01*
X118745238Y-103056190D01*
X119745238Y-103008571D02*
X120078571Y-103008571D01*
X120221428Y-103532380D02*
X119745238Y-103532380D01*
X119745238Y-102532380D01*
X120221428Y-102532380D01*
X120983333Y-103008571D02*
X120650000Y-103008571D01*
X120650000Y-103532380D02*
X120650000Y-102532380D01*
X121126190Y-102532380D01*
X121650000Y-102532380D02*
X121650000Y-102770476D01*
X121411904Y-102675238D02*
X121650000Y-102770476D01*
X121888095Y-102675238D01*
X121507142Y-102960952D02*
X121650000Y-102770476D01*
X121792857Y-102960952D01*
X122411904Y-102532380D02*
X122411904Y-102770476D01*
X122173809Y-102675238D02*
X122411904Y-102770476D01*
X122650000Y-102675238D01*
X122269047Y-102960952D02*
X122411904Y-102770476D01*
X122554761Y-102960952D01*
X119316666Y-83212380D02*
X118983333Y-82736190D01*
X118745238Y-83212380D02*
X118745238Y-82212380D01*
X119126190Y-82212380D01*
X119221428Y-82260000D01*
X119269047Y-82307619D01*
X119316666Y-82402857D01*
X119316666Y-82545714D01*
X119269047Y-82640952D01*
X119221428Y-82688571D01*
X119126190Y-82736190D01*
X118745238Y-82736190D01*
X119745238Y-82688571D02*
X120078571Y-82688571D01*
X120221428Y-83212380D02*
X119745238Y-83212380D01*
X119745238Y-82212380D01*
X120221428Y-82212380D01*
X120983333Y-82688571D02*
X120650000Y-82688571D01*
X120650000Y-83212380D02*
X120650000Y-82212380D01*
X121126190Y-82212380D01*
X121650000Y-82212380D02*
X121650000Y-82450476D01*
X121411904Y-82355238D02*
X121650000Y-82450476D01*
X121888095Y-82355238D01*
X121507142Y-82640952D02*
X121650000Y-82450476D01*
X121792857Y-82640952D01*
X122411904Y-82212380D02*
X122411904Y-82450476D01*
X122173809Y-82355238D02*
X122411904Y-82450476D01*
X122650000Y-82355238D01*
X122269047Y-82640952D02*
X122411904Y-82450476D01*
X122554761Y-82640952D01*
X119316666Y-73052380D02*
X118983333Y-72576190D01*
X118745238Y-73052380D02*
X118745238Y-72052380D01*
X119126190Y-72052380D01*
X119221428Y-72100000D01*
X119269047Y-72147619D01*
X119316666Y-72242857D01*
X119316666Y-72385714D01*
X119269047Y-72480952D01*
X119221428Y-72528571D01*
X119126190Y-72576190D01*
X118745238Y-72576190D01*
X119745238Y-72528571D02*
X120078571Y-72528571D01*
X120221428Y-73052380D02*
X119745238Y-73052380D01*
X119745238Y-72052380D01*
X120221428Y-72052380D01*
X120983333Y-72528571D02*
X120650000Y-72528571D01*
X120650000Y-73052380D02*
X120650000Y-72052380D01*
X121126190Y-72052380D01*
X121650000Y-72052380D02*
X121650000Y-72290476D01*
X121411904Y-72195238D02*
X121650000Y-72290476D01*
X121888095Y-72195238D01*
X121507142Y-72480952D02*
X121650000Y-72290476D01*
X121792857Y-72480952D01*
X122411904Y-72052380D02*
X122411904Y-72290476D01*
X122173809Y-72195238D02*
X122411904Y-72290476D01*
X122650000Y-72195238D01*
X122269047Y-72480952D02*
X122411904Y-72290476D01*
X122554761Y-72480952D01*
X125122380Y-76263333D02*
X124646190Y-76596666D01*
X125122380Y-76834761D02*
X124122380Y-76834761D01*
X124122380Y-76453809D01*
X124170000Y-76358571D01*
X124217619Y-76310952D01*
X124312857Y-76263333D01*
X124455714Y-76263333D01*
X124550952Y-76310952D01*
X124598571Y-76358571D01*
X124646190Y-76453809D01*
X124646190Y-76834761D01*
X124598571Y-75834761D02*
X124598571Y-75501428D01*
X125122380Y-75358571D02*
X125122380Y-75834761D01*
X124122380Y-75834761D01*
X124122380Y-75358571D01*
X124598571Y-74596666D02*
X124598571Y-74930000D01*
X125122380Y-74930000D02*
X124122380Y-74930000D01*
X124122380Y-74453809D01*
X124122380Y-73930000D02*
X124360476Y-73930000D01*
X124265238Y-74168095D02*
X124360476Y-73930000D01*
X124265238Y-73691904D01*
X124550952Y-74072857D02*
X124360476Y-73930000D01*
X124550952Y-73787142D01*
X124122380Y-73168095D02*
X124360476Y-73168095D01*
X124265238Y-73406190D02*
X124360476Y-73168095D01*
X124265238Y-72930000D01*
X124550952Y-73310952D02*
X124360476Y-73168095D01*
X124550952Y-73025238D01*
X105336666Y-72842380D02*
X105003333Y-72366190D01*
X104765238Y-72842380D02*
X104765238Y-71842380D01*
X105146190Y-71842380D01*
X105241428Y-71890000D01*
X105289047Y-71937619D01*
X105336666Y-72032857D01*
X105336666Y-72175714D01*
X105289047Y-72270952D01*
X105241428Y-72318571D01*
X105146190Y-72366190D01*
X104765238Y-72366190D01*
X105765238Y-72318571D02*
X106098571Y-72318571D01*
X106241428Y-72842380D02*
X105765238Y-72842380D01*
X105765238Y-71842380D01*
X106241428Y-71842380D01*
X107003333Y-72318571D02*
X106670000Y-72318571D01*
X106670000Y-72842380D02*
X106670000Y-71842380D01*
X107146190Y-71842380D01*
X107670000Y-71842380D02*
X107670000Y-72080476D01*
X107431904Y-71985238D02*
X107670000Y-72080476D01*
X107908095Y-71985238D01*
X107527142Y-72270952D02*
X107670000Y-72080476D01*
X107812857Y-72270952D01*
X108431904Y-71842380D02*
X108431904Y-72080476D01*
X108193809Y-71985238D02*
X108431904Y-72080476D01*
X108670000Y-71985238D01*
X108289047Y-72270952D02*
X108431904Y-72080476D01*
X108574761Y-72270952D01*
X105408095Y-112482380D02*
X105408095Y-113291904D01*
X105455714Y-113387142D01*
X105503333Y-113434761D01*
X105598571Y-113482380D01*
X105789047Y-113482380D01*
X105884285Y-113434761D01*
X105931904Y-113387142D01*
X105979523Y-113291904D01*
X105979523Y-112482380D01*
X106408095Y-113434761D02*
X106550952Y-113482380D01*
X106789047Y-113482380D01*
X106884285Y-113434761D01*
X106931904Y-113387142D01*
X106979523Y-113291904D01*
X106979523Y-113196666D01*
X106931904Y-113101428D01*
X106884285Y-113053809D01*
X106789047Y-113006190D01*
X106598571Y-112958571D01*
X106503333Y-112910952D01*
X106455714Y-112863333D01*
X106408095Y-112768095D01*
X106408095Y-112672857D01*
X106455714Y-112577619D01*
X106503333Y-112530000D01*
X106598571Y-112482380D01*
X106836666Y-112482380D01*
X106979523Y-112530000D01*
X107741428Y-112958571D02*
X107884285Y-113006190D01*
X107931904Y-113053809D01*
X107979523Y-113149047D01*
X107979523Y-113291904D01*
X107931904Y-113387142D01*
X107884285Y-113434761D01*
X107789047Y-113482380D01*
X107408095Y-113482380D01*
X107408095Y-112482380D01*
X107741428Y-112482380D01*
X107836666Y-112530000D01*
X107884285Y-112577619D01*
X107931904Y-112672857D01*
X107931904Y-112768095D01*
X107884285Y-112863333D01*
X107836666Y-112910952D01*
X107741428Y-112958571D01*
X107408095Y-112958571D01*
D11*
X120650000Y-116265000D02*
X119320000Y-116265000D01*
X124520000Y-116265000D02*
X124520000Y-113605000D01*
X121920000Y-116265000D02*
X124520000Y-116265000D01*
X121920000Y-116265000D02*
X121920000Y-113605000D01*
X119320000Y-116265000D02*
X119320000Y-114935000D01*
X121920000Y-113605000D02*
X124520000Y-113605000D01*
X119320000Y-111820000D02*
X121980000Y-111820000D01*
X119320000Y-106680000D02*
X119320000Y-111820000D01*
X119320000Y-105410000D02*
X119320000Y-104080000D01*
X121980000Y-106680000D02*
X121980000Y-111820000D01*
X119320000Y-104080000D02*
X120650000Y-104080000D01*
X119320000Y-106680000D02*
X121980000Y-106680000D01*
X119320000Y-86360000D02*
X119320000Y-99120000D01*
X119320000Y-85090000D02*
X119320000Y-83760000D01*
X119320000Y-83760000D02*
X120650000Y-83760000D01*
X119320000Y-86360000D02*
X121980000Y-86360000D01*
X119320000Y-99120000D02*
X121980000Y-99120000D01*
X121980000Y-86360000D02*
X121980000Y-99120000D01*
X119320000Y-74930000D02*
X119320000Y-73600000D01*
X119320000Y-78800000D02*
X121980000Y-78800000D01*
X119320000Y-76200000D02*
X119320000Y-78800000D01*
X119320000Y-76200000D02*
X121980000Y-76200000D01*
X119320000Y-73600000D02*
X120650000Y-73600000D01*
X121980000Y-76200000D02*
X121980000Y-78800000D01*
X128270000Y-73600000D02*
X141030000Y-73600000D01*
X141030000Y-76260000D02*
X141030000Y-73600000D01*
X128270000Y-76260000D02*
X128270000Y-73600000D01*
X125670000Y-76260000D02*
X125670000Y-74930000D01*
X127000000Y-76260000D02*
X125670000Y-76260000D01*
X128270000Y-76260000D02*
X141030000Y-76260000D01*
X100320000Y-76200000D02*
X97650000Y-76200000D01*
X110610000Y-119510000D02*
X102730000Y-119510000D01*
X115690000Y-116970000D02*
X115690000Y-73530000D01*
X102730000Y-119510000D02*
X102730000Y-109090000D01*
X110610000Y-109090000D02*
X110610000Y-119510000D01*
X115690000Y-116970000D02*
X110610000Y-116970000D01*
X97650000Y-78740000D02*
X97650000Y-116970000D01*
X100320000Y-114300000D02*
X97650000Y-114300000D01*
X113020000Y-76200000D02*
X113020000Y-114300000D01*
X100320000Y-78740000D02*
X100320000Y-76200000D01*
X113020000Y-114300000D02*
X115690000Y-114300000D01*
X113020000Y-76200000D02*
X115690000Y-76200000D01*
X100320000Y-78740000D02*
X97650000Y-78740000D01*
X115690000Y-73530000D02*
X97650000Y-73530000D01*
X97650000Y-116970000D02*
X102730000Y-116970000D01*
X97650000Y-73530000D02*
X97650000Y-76200000D01*
X102730000Y-109090000D02*
X110610000Y-109090000D01*
X100320000Y-78740000D02*
X100320000Y-114300000D01*
D12*
X132080000Y-74930000D03*
%LPC*%
D13*
X120650000Y-114935000D03*
D12*
X123190000Y-114935000D03*
D13*
X120650000Y-105410000D03*
D12*
X120650000Y-107950000D03*
X120650000Y-110490000D03*
D13*
X120650000Y-85090000D03*
D12*
X120650000Y-87630000D03*
X120650000Y-90170000D03*
X120650000Y-92710000D03*
X120650000Y-95250000D03*
X120650000Y-97790000D03*
D13*
X120650000Y-74930000D03*
D12*
X120650000Y-77470000D03*
X139700000Y-74930000D03*
X137160000Y-74930000D03*
X134620000Y-74930000D03*
X132080000Y-74930000D03*
X129540000Y-74930000D03*
D13*
X127000000Y-74930000D03*
D14*
X99050000Y-77470000D03*
D15*
X99050000Y-80010000D03*
X99050000Y-82550000D03*
X99050000Y-85090000D03*
X99050000Y-87630000D03*
X99050000Y-90170000D03*
X99050000Y-92710000D03*
X99050000Y-95250000D03*
X99050000Y-97790000D03*
X99050000Y-100330000D03*
X99050000Y-102870000D03*
X99050000Y-105410000D03*
X99050000Y-107950000D03*
X99050000Y-110490000D03*
X99050000Y-113030000D03*
X114290000Y-113030000D03*
X114290000Y-110490000D03*
X114290000Y-107950000D03*
X114290000Y-105410000D03*
X114290000Y-102870000D03*
X114290000Y-100330000D03*
X114290000Y-97790000D03*
X114290000Y-95250000D03*
X114290000Y-92710000D03*
X114290000Y-90170000D03*
X114290000Y-87630000D03*
X114290000Y-85090000D03*
X114290000Y-82550000D03*
X114290000Y-80010000D03*
X114290000Y-77470000D03*
M02*
