M48
; DRILL file {KiCad (6.0.10)} date Thu May  9 21:43:06 2024
; FORMAT={-:-/ absolute / inch / decimal}
; #@! TF.CreationDate,2024-05-09T21:43:06+03:00
; #@! TF.GenerationSoftware,Kicad,Pcbnew,(6.0.10)
; #@! TF.FileFunction,Plated,1,2,PTH
FMAT,2
INCH
; #@! TA.AperFunction,Plated,PTH,ViaDrill
T1C0.0157
; #@! TA.AperFunction,Plated,PTH,ComponentDrill
T2C0.0394
%
G90
G05
T1
X4.9Y-3.1
X4.9Y-3.65
X5.2Y-3.55
T2
X3.8996Y-3.05
X3.8996Y-3.15
X3.8996Y-3.25
X3.8996Y-3.35
X3.8996Y-3.45
X3.8996Y-3.55
X3.8996Y-3.65
X3.8996Y-3.75
X3.8996Y-3.85
X3.8996Y-3.95
X3.8996Y-4.05
X3.8996Y-4.15
X3.8996Y-4.25
X3.8996Y-4.35
X3.8996Y-4.45
X4.4996Y-3.05
X4.4996Y-3.15
X4.4996Y-3.25
X4.4996Y-3.35
X4.4996Y-3.45
X4.4996Y-3.55
X4.4996Y-3.65
X4.4996Y-3.75
X4.4996Y-3.85
X4.4996Y-3.95
X4.4996Y-4.05
X4.4996Y-4.15
X4.4996Y-4.25
X4.4996Y-4.35
X4.4996Y-4.45
X4.75Y-2.95
X4.75Y-3.05
X4.75Y-3.35
X4.75Y-3.45
X4.75Y-3.55
X4.75Y-3.65
X4.75Y-3.75
X4.75Y-3.85
X4.75Y-4.15
X4.75Y-4.25
X4.75Y-4.35
X4.75Y-4.525
X4.85Y-4.525
X5.0Y-2.95
X5.1Y-2.95
X5.2Y-2.95
X5.3Y-2.95
X5.4Y-2.95
X5.5Y-2.95
T0
M30
