G04 #@! TF.GenerationSoftware,KiCad,Pcbnew,(6.0.10)*
G04 #@! TF.CreationDate,2024-05-09T20:32:42+03:00*
G04 #@! TF.ProjectId,iot-robots,696f742d-726f-4626-9f74-732e6b696361,rev?*
G04 #@! TF.SameCoordinates,Original*
G04 #@! TF.FileFunction,Soldermask,Bot*
G04 #@! TF.FilePolarity,Negative*
%FSLAX46Y46*%
G04 Gerber Fmt 4.6, Leading zero omitted, Abs format (unit mm)*
G04 Created by KiCad (PCBNEW (6.0.10)) date 2024-05-09 20:32:42*
%MOMM*%
%LPD*%
G01*
G04 APERTURE LIST*
%ADD10R,1.700000X1.700000*%
%ADD11O,1.700000X1.700000*%
%ADD12R,1.600000X1.600000*%
%ADD13O,1.600000X1.600000*%
G04 APERTURE END LIST*
D10*
X120650000Y-114935000D03*
D11*
X123190000Y-114935000D03*
D10*
X120650000Y-105410000D03*
D11*
X120650000Y-107950000D03*
X120650000Y-110490000D03*
D10*
X120650000Y-85090000D03*
D11*
X120650000Y-87630000D03*
X120650000Y-90170000D03*
X120650000Y-92710000D03*
X120650000Y-95250000D03*
X120650000Y-97790000D03*
D10*
X120650000Y-74930000D03*
D11*
X120650000Y-77470000D03*
X139700000Y-74930000D03*
X137160000Y-74930000D03*
X134620000Y-74930000D03*
X132080000Y-74930000D03*
X129540000Y-74930000D03*
D10*
X127000000Y-74930000D03*
D12*
X99050000Y-77470000D03*
D13*
X99050000Y-80010000D03*
X99050000Y-82550000D03*
X99050000Y-85090000D03*
X99050000Y-87630000D03*
X99050000Y-90170000D03*
X99050000Y-92710000D03*
X99050000Y-95250000D03*
X99050000Y-97790000D03*
X99050000Y-100330000D03*
X99050000Y-102870000D03*
X99050000Y-105410000D03*
X99050000Y-107950000D03*
X99050000Y-110490000D03*
X99050000Y-113030000D03*
X114290000Y-113030000D03*
X114290000Y-110490000D03*
X114290000Y-107950000D03*
X114290000Y-105410000D03*
X114290000Y-102870000D03*
X114290000Y-100330000D03*
X114290000Y-97790000D03*
X114290000Y-95250000D03*
X114290000Y-92710000D03*
X114290000Y-90170000D03*
X114290000Y-87630000D03*
X114290000Y-85090000D03*
X114290000Y-82550000D03*
X114290000Y-80010000D03*
X114290000Y-77470000D03*
M02*
