%TF.GenerationSoftware,KiCad,Pcbnew,(6.0.10)*%
%TF.CreationDate,2024-05-09T21:43:07+03:00*%
%TF.ProjectId,iot-robots,696f742d-726f-4626-9f74-732e6b696361,rev?*%
%TF.SameCoordinates,Original*%
%TF.FileFunction,Drillmap*%
%TF.FilePolarity,Positive*%
%FSLAX45Y45*%
G04 Gerber Fmt 4.5, Leading zero omitted, Abs format (unit mm)*
G04 Created by KiCad (PCBNEW (6.0.10)) date 2024-05-09 21:43:07*
%MOMM*%
%LPD*%
G01*
G04 APERTURE LIST*
%ADD10C,0.100000*%
%ADD11C,0.200000*%
G04 APERTURE END LIST*
D10*
X9398000Y-11811000D02*
X9398000Y-6985000D01*
X14224000Y-11811000D02*
X9398000Y-11811000D01*
X14224000Y-6985000D02*
X14224000Y-11811000D01*
X9398000Y-6985000D02*
X14224000Y-6985000D01*
D11*
X9650619Y-12126476D02*
X9650619Y-11926476D01*
X9698238Y-11926476D01*
X9726810Y-11936000D01*
X9745857Y-11955048D01*
X9755381Y-11974095D01*
X9764905Y-12012190D01*
X9764905Y-12040762D01*
X9755381Y-12078857D01*
X9745857Y-12097905D01*
X9726810Y-12116952D01*
X9698238Y-12126476D01*
X9650619Y-12126476D01*
X9850619Y-12126476D02*
X9850619Y-11993143D01*
X9850619Y-12031238D02*
X9860143Y-12012190D01*
X9869667Y-12002667D01*
X9888714Y-11993143D01*
X9907762Y-11993143D01*
X9974429Y-12126476D02*
X9974429Y-11993143D01*
X9974429Y-11926476D02*
X9964905Y-11936000D01*
X9974429Y-11945524D01*
X9983952Y-11936000D01*
X9974429Y-11926476D01*
X9974429Y-11945524D01*
X10098238Y-12126476D02*
X10079190Y-12116952D01*
X10069667Y-12097905D01*
X10069667Y-11926476D01*
X10203000Y-12126476D02*
X10183952Y-12116952D01*
X10174429Y-12097905D01*
X10174429Y-11926476D01*
X10431571Y-12126476D02*
X10431571Y-11926476D01*
X10498238Y-12069333D01*
X10564905Y-11926476D01*
X10564905Y-12126476D01*
X10745857Y-12126476D02*
X10745857Y-12021714D01*
X10736333Y-12002667D01*
X10717286Y-11993143D01*
X10679190Y-11993143D01*
X10660143Y-12002667D01*
X10745857Y-12116952D02*
X10726810Y-12126476D01*
X10679190Y-12126476D01*
X10660143Y-12116952D01*
X10650619Y-12097905D01*
X10650619Y-12078857D01*
X10660143Y-12059809D01*
X10679190Y-12050286D01*
X10726810Y-12050286D01*
X10745857Y-12040762D01*
X10841095Y-11993143D02*
X10841095Y-12193143D01*
X10841095Y-12002667D02*
X10860143Y-11993143D01*
X10898238Y-11993143D01*
X10917286Y-12002667D01*
X10926810Y-12012190D01*
X10936333Y-12031238D01*
X10936333Y-12088381D01*
X10926810Y-12107428D01*
X10917286Y-12116952D01*
X10898238Y-12126476D01*
X10860143Y-12126476D01*
X10841095Y-12116952D01*
X11022048Y-12107428D02*
X11031571Y-12116952D01*
X11022048Y-12126476D01*
X11012524Y-12116952D01*
X11022048Y-12107428D01*
X11022048Y-12126476D01*
X11022048Y-12002667D02*
X11031571Y-12012190D01*
X11022048Y-12021714D01*
X11012524Y-12012190D01*
X11022048Y-12002667D01*
X11022048Y-12021714D01*
M02*
