%TF.GenerationSoftware,KiCad,Pcbnew,(6.0.10)*%
%TF.CreationDate,2024-05-09T21:43:07+03:00*%
%TF.ProjectId,iot-robots,696f742d-726f-4626-9f74-732e6b696361,rev?*%
%TF.SameCoordinates,Original*%
%TF.FileFunction,Drillmap*%
%TF.FilePolarity,Positive*%
%FSLAX45Y45*%
G04 Gerber Fmt 4.5, Leading zero omitted, Abs format (unit mm)*
G04 Created by KiCad (PCBNEW (6.0.10)) date 2024-05-09 21:43:07*
%MOMM*%
%LPD*%
G01*
G04 APERTURE LIST*
%ADD10C,0.100000*%
%ADD11C,0.200000*%
%ADD12C,0.040000*%
G04 APERTURE END LIST*
D10*
X9398000Y-11811000D02*
X9398000Y-6985000D01*
X14224000Y-11811000D02*
X9398000Y-11811000D01*
X14224000Y-6985000D02*
X14224000Y-11811000D01*
X9398000Y-6985000D02*
X14224000Y-6985000D01*
D11*
D12*
X12426000Y-7854000D02*
X12466000Y-7894000D01*
X12466000Y-7854000D02*
X12426000Y-7894000D01*
X12426000Y-9251000D02*
X12466000Y-9291000D01*
X12466000Y-9251000D02*
X12426000Y-9291000D01*
X13188000Y-8997000D02*
X13228000Y-9037000D01*
X13228000Y-8997000D02*
X13188000Y-9037000D01*
D10*
X9955000Y-7747000D02*
G75*
G03*
X9955000Y-7747000I-50000J0D01*
G01*
X9955000Y-8001000D02*
G75*
G03*
X9955000Y-8001000I-50000J0D01*
G01*
X9955000Y-8255000D02*
G75*
G03*
X9955000Y-8255000I-50000J0D01*
G01*
X9955000Y-8509000D02*
G75*
G03*
X9955000Y-8509000I-50000J0D01*
G01*
X9955000Y-8763000D02*
G75*
G03*
X9955000Y-8763000I-50000J0D01*
G01*
X9955000Y-9017000D02*
G75*
G03*
X9955000Y-9017000I-50000J0D01*
G01*
X9955000Y-9271000D02*
G75*
G03*
X9955000Y-9271000I-50000J0D01*
G01*
X9955000Y-9525000D02*
G75*
G03*
X9955000Y-9525000I-50000J0D01*
G01*
X9955000Y-9779000D02*
G75*
G03*
X9955000Y-9779000I-50000J0D01*
G01*
X9955000Y-10033000D02*
G75*
G03*
X9955000Y-10033000I-50000J0D01*
G01*
X9955000Y-10287000D02*
G75*
G03*
X9955000Y-10287000I-50000J0D01*
G01*
X9955000Y-10541000D02*
G75*
G03*
X9955000Y-10541000I-50000J0D01*
G01*
X9955000Y-10795000D02*
G75*
G03*
X9955000Y-10795000I-50000J0D01*
G01*
X9955000Y-11049000D02*
G75*
G03*
X9955000Y-11049000I-50000J0D01*
G01*
X9955000Y-11303000D02*
G75*
G03*
X9955000Y-11303000I-50000J0D01*
G01*
X11479000Y-7747000D02*
G75*
G03*
X11479000Y-7747000I-50000J0D01*
G01*
X11479000Y-8001000D02*
G75*
G03*
X11479000Y-8001000I-50000J0D01*
G01*
X11479000Y-8255000D02*
G75*
G03*
X11479000Y-8255000I-50000J0D01*
G01*
X11479000Y-8509000D02*
G75*
G03*
X11479000Y-8509000I-50000J0D01*
G01*
X11479000Y-8763000D02*
G75*
G03*
X11479000Y-8763000I-50000J0D01*
G01*
X11479000Y-9017000D02*
G75*
G03*
X11479000Y-9017000I-50000J0D01*
G01*
X11479000Y-9271000D02*
G75*
G03*
X11479000Y-9271000I-50000J0D01*
G01*
X11479000Y-9525000D02*
G75*
G03*
X11479000Y-9525000I-50000J0D01*
G01*
X11479000Y-9779000D02*
G75*
G03*
X11479000Y-9779000I-50000J0D01*
G01*
X11479000Y-10033000D02*
G75*
G03*
X11479000Y-10033000I-50000J0D01*
G01*
X11479000Y-10287000D02*
G75*
G03*
X11479000Y-10287000I-50000J0D01*
G01*
X11479000Y-10541000D02*
G75*
G03*
X11479000Y-10541000I-50000J0D01*
G01*
X11479000Y-10795000D02*
G75*
G03*
X11479000Y-10795000I-50000J0D01*
G01*
X11479000Y-11049000D02*
G75*
G03*
X11479000Y-11049000I-50000J0D01*
G01*
X11479000Y-11303000D02*
G75*
G03*
X11479000Y-11303000I-50000J0D01*
G01*
X12115000Y-7493000D02*
G75*
G03*
X12115000Y-7493000I-50000J0D01*
G01*
X12115000Y-7747000D02*
G75*
G03*
X12115000Y-7747000I-50000J0D01*
G01*
X12115000Y-8509000D02*
G75*
G03*
X12115000Y-8509000I-50000J0D01*
G01*
X12115000Y-8763000D02*
G75*
G03*
X12115000Y-8763000I-50000J0D01*
G01*
X12115000Y-9017000D02*
G75*
G03*
X12115000Y-9017000I-50000J0D01*
G01*
X12115000Y-9271000D02*
G75*
G03*
X12115000Y-9271000I-50000J0D01*
G01*
X12115000Y-9525000D02*
G75*
G03*
X12115000Y-9525000I-50000J0D01*
G01*
X12115000Y-9779000D02*
G75*
G03*
X12115000Y-9779000I-50000J0D01*
G01*
X12115000Y-10541000D02*
G75*
G03*
X12115000Y-10541000I-50000J0D01*
G01*
X12115000Y-10795000D02*
G75*
G03*
X12115000Y-10795000I-50000J0D01*
G01*
X12115000Y-11049000D02*
G75*
G03*
X12115000Y-11049000I-50000J0D01*
G01*
X12115000Y-11493500D02*
G75*
G03*
X12115000Y-11493500I-50000J0D01*
G01*
X12369000Y-11493500D02*
G75*
G03*
X12369000Y-11493500I-50000J0D01*
G01*
X12750000Y-7493000D02*
G75*
G03*
X12750000Y-7493000I-50000J0D01*
G01*
X13004000Y-7493000D02*
G75*
G03*
X13004000Y-7493000I-50000J0D01*
G01*
X13258000Y-7493000D02*
G75*
G03*
X13258000Y-7493000I-50000J0D01*
G01*
X13512000Y-7493000D02*
G75*
G03*
X13512000Y-7493000I-50000J0D01*
G01*
X13766000Y-7493000D02*
G75*
G03*
X13766000Y-7493000I-50000J0D01*
G01*
X14020000Y-7493000D02*
G75*
G03*
X14020000Y-7493000I-50000J0D01*
G01*
D11*
X9650619Y-12126476D02*
X9650619Y-11926476D01*
X9698238Y-11926476D01*
X9726810Y-11936000D01*
X9745857Y-11955048D01*
X9755381Y-11974095D01*
X9764905Y-12012190D01*
X9764905Y-12040762D01*
X9755381Y-12078857D01*
X9745857Y-12097905D01*
X9726810Y-12116952D01*
X9698238Y-12126476D01*
X9650619Y-12126476D01*
X9850619Y-12126476D02*
X9850619Y-11993143D01*
X9850619Y-12031238D02*
X9860143Y-12012190D01*
X9869667Y-12002667D01*
X9888714Y-11993143D01*
X9907762Y-11993143D01*
X9974429Y-12126476D02*
X9974429Y-11993143D01*
X9974429Y-11926476D02*
X9964905Y-11936000D01*
X9974429Y-11945524D01*
X9983952Y-11936000D01*
X9974429Y-11926476D01*
X9974429Y-11945524D01*
X10098238Y-12126476D02*
X10079190Y-12116952D01*
X10069667Y-12097905D01*
X10069667Y-11926476D01*
X10203000Y-12126476D02*
X10183952Y-12116952D01*
X10174429Y-12097905D01*
X10174429Y-11926476D01*
X10431571Y-12126476D02*
X10431571Y-11926476D01*
X10498238Y-12069333D01*
X10564905Y-11926476D01*
X10564905Y-12126476D01*
X10745857Y-12126476D02*
X10745857Y-12021714D01*
X10736333Y-12002667D01*
X10717286Y-11993143D01*
X10679190Y-11993143D01*
X10660143Y-12002667D01*
X10745857Y-12116952D02*
X10726810Y-12126476D01*
X10679190Y-12126476D01*
X10660143Y-12116952D01*
X10650619Y-12097905D01*
X10650619Y-12078857D01*
X10660143Y-12059809D01*
X10679190Y-12050286D01*
X10726810Y-12050286D01*
X10745857Y-12040762D01*
X10841095Y-11993143D02*
X10841095Y-12193143D01*
X10841095Y-12002667D02*
X10860143Y-11993143D01*
X10898238Y-11993143D01*
X10917286Y-12002667D01*
X10926810Y-12012190D01*
X10936333Y-12031238D01*
X10936333Y-12088381D01*
X10926810Y-12107428D01*
X10917286Y-12116952D01*
X10898238Y-12126476D01*
X10860143Y-12126476D01*
X10841095Y-12116952D01*
X11022048Y-12107428D02*
X11031571Y-12116952D01*
X11022048Y-12126476D01*
X11012524Y-12116952D01*
X11022048Y-12107428D01*
X11022048Y-12126476D01*
X11022048Y-12002667D02*
X11031571Y-12012190D01*
X11022048Y-12021714D01*
X11012524Y-12012190D01*
X11022048Y-12002667D01*
X11022048Y-12021714D01*
D12*
X9353000Y-12436000D02*
X9393000Y-12476000D01*
X9393000Y-12436000D02*
X9353000Y-12476000D01*
D11*
X9688714Y-12346476D02*
X9707762Y-12346476D01*
X9726810Y-12356000D01*
X9736333Y-12365524D01*
X9745857Y-12384571D01*
X9755381Y-12422667D01*
X9755381Y-12470286D01*
X9745857Y-12508381D01*
X9736333Y-12527428D01*
X9726810Y-12536952D01*
X9707762Y-12546476D01*
X9688714Y-12546476D01*
X9669667Y-12536952D01*
X9660143Y-12527428D01*
X9650619Y-12508381D01*
X9641095Y-12470286D01*
X9641095Y-12422667D01*
X9650619Y-12384571D01*
X9660143Y-12365524D01*
X9669667Y-12356000D01*
X9688714Y-12346476D01*
X9841095Y-12527428D02*
X9850619Y-12536952D01*
X9841095Y-12546476D01*
X9831571Y-12536952D01*
X9841095Y-12527428D01*
X9841095Y-12546476D01*
X10022048Y-12413143D02*
X10022048Y-12546476D01*
X9974429Y-12336952D02*
X9926810Y-12479809D01*
X10050619Y-12479809D01*
X10164905Y-12346476D02*
X10183952Y-12346476D01*
X10203000Y-12356000D01*
X10212524Y-12365524D01*
X10222048Y-12384571D01*
X10231571Y-12422667D01*
X10231571Y-12470286D01*
X10222048Y-12508381D01*
X10212524Y-12527428D01*
X10203000Y-12536952D01*
X10183952Y-12546476D01*
X10164905Y-12546476D01*
X10145857Y-12536952D01*
X10136333Y-12527428D01*
X10126810Y-12508381D01*
X10117286Y-12470286D01*
X10117286Y-12422667D01*
X10126810Y-12384571D01*
X10136333Y-12365524D01*
X10145857Y-12356000D01*
X10164905Y-12346476D01*
X10355381Y-12346476D02*
X10374429Y-12346476D01*
X10393476Y-12356000D01*
X10403000Y-12365524D01*
X10412524Y-12384571D01*
X10422048Y-12422667D01*
X10422048Y-12470286D01*
X10412524Y-12508381D01*
X10403000Y-12527428D01*
X10393476Y-12536952D01*
X10374429Y-12546476D01*
X10355381Y-12546476D01*
X10336333Y-12536952D01*
X10326810Y-12527428D01*
X10317286Y-12508381D01*
X10307762Y-12470286D01*
X10307762Y-12422667D01*
X10317286Y-12384571D01*
X10326810Y-12365524D01*
X10336333Y-12356000D01*
X10355381Y-12346476D01*
X10507762Y-12546476D02*
X10507762Y-12413143D01*
X10507762Y-12432190D02*
X10517286Y-12422667D01*
X10536333Y-12413143D01*
X10564905Y-12413143D01*
X10583952Y-12422667D01*
X10593476Y-12441714D01*
X10593476Y-12546476D01*
X10593476Y-12441714D02*
X10603000Y-12422667D01*
X10622048Y-12413143D01*
X10650619Y-12413143D01*
X10669667Y-12422667D01*
X10679190Y-12441714D01*
X10679190Y-12546476D01*
X10774429Y-12546476D02*
X10774429Y-12413143D01*
X10774429Y-12432190D02*
X10783952Y-12422667D01*
X10803000Y-12413143D01*
X10831571Y-12413143D01*
X10850619Y-12422667D01*
X10860143Y-12441714D01*
X10860143Y-12546476D01*
X10860143Y-12441714D02*
X10869667Y-12422667D01*
X10888714Y-12413143D01*
X10917286Y-12413143D01*
X10936333Y-12422667D01*
X10945857Y-12441714D01*
X10945857Y-12546476D01*
X11336333Y-12336952D02*
X11164905Y-12594095D01*
X11593476Y-12346476D02*
X11612524Y-12346476D01*
X11631571Y-12356000D01*
X11641095Y-12365524D01*
X11650619Y-12384571D01*
X11660143Y-12422667D01*
X11660143Y-12470286D01*
X11650619Y-12508381D01*
X11641095Y-12527428D01*
X11631571Y-12536952D01*
X11612524Y-12546476D01*
X11593476Y-12546476D01*
X11574428Y-12536952D01*
X11564905Y-12527428D01*
X11555381Y-12508381D01*
X11545857Y-12470286D01*
X11545857Y-12422667D01*
X11555381Y-12384571D01*
X11564905Y-12365524D01*
X11574428Y-12356000D01*
X11593476Y-12346476D01*
X11745857Y-12527428D02*
X11755381Y-12536952D01*
X11745857Y-12546476D01*
X11736333Y-12536952D01*
X11745857Y-12527428D01*
X11745857Y-12546476D01*
X11879190Y-12346476D02*
X11898238Y-12346476D01*
X11917286Y-12356000D01*
X11926809Y-12365524D01*
X11936333Y-12384571D01*
X11945857Y-12422667D01*
X11945857Y-12470286D01*
X11936333Y-12508381D01*
X11926809Y-12527428D01*
X11917286Y-12536952D01*
X11898238Y-12546476D01*
X11879190Y-12546476D01*
X11860143Y-12536952D01*
X11850619Y-12527428D01*
X11841095Y-12508381D01*
X11831571Y-12470286D01*
X11831571Y-12422667D01*
X11841095Y-12384571D01*
X11850619Y-12365524D01*
X11860143Y-12356000D01*
X11879190Y-12346476D01*
X12136333Y-12546476D02*
X12022048Y-12546476D01*
X12079190Y-12546476D02*
X12079190Y-12346476D01*
X12060143Y-12375048D01*
X12041095Y-12394095D01*
X12022048Y-12403619D01*
X12317286Y-12346476D02*
X12222048Y-12346476D01*
X12212524Y-12441714D01*
X12222048Y-12432190D01*
X12241095Y-12422667D01*
X12288714Y-12422667D01*
X12307762Y-12432190D01*
X12317286Y-12441714D01*
X12326809Y-12460762D01*
X12326809Y-12508381D01*
X12317286Y-12527428D01*
X12307762Y-12536952D01*
X12288714Y-12546476D01*
X12241095Y-12546476D01*
X12222048Y-12536952D01*
X12212524Y-12527428D01*
X12393476Y-12346476D02*
X12526809Y-12346476D01*
X12441095Y-12546476D01*
X12593476Y-12346476D02*
X12593476Y-12384571D01*
X12669667Y-12346476D02*
X12669667Y-12384571D01*
X12964905Y-12622667D02*
X12955381Y-12613143D01*
X12936333Y-12584571D01*
X12926809Y-12565524D01*
X12917286Y-12536952D01*
X12907762Y-12489333D01*
X12907762Y-12451238D01*
X12917286Y-12403619D01*
X12926809Y-12375048D01*
X12936333Y-12356000D01*
X12955381Y-12327428D01*
X12964905Y-12317905D01*
X13022048Y-12346476D02*
X13145857Y-12346476D01*
X13079190Y-12422667D01*
X13107762Y-12422667D01*
X13126809Y-12432190D01*
X13136333Y-12441714D01*
X13145857Y-12460762D01*
X13145857Y-12508381D01*
X13136333Y-12527428D01*
X13126809Y-12536952D01*
X13107762Y-12546476D01*
X13050619Y-12546476D01*
X13031571Y-12536952D01*
X13022048Y-12527428D01*
X13383952Y-12546476D02*
X13383952Y-12346476D01*
X13469667Y-12546476D02*
X13469667Y-12441714D01*
X13460143Y-12422667D01*
X13441095Y-12413143D01*
X13412524Y-12413143D01*
X13393476Y-12422667D01*
X13383952Y-12432190D01*
X13593476Y-12546476D02*
X13574428Y-12536952D01*
X13564905Y-12527428D01*
X13555381Y-12508381D01*
X13555381Y-12451238D01*
X13564905Y-12432190D01*
X13574428Y-12422667D01*
X13593476Y-12413143D01*
X13622048Y-12413143D01*
X13641095Y-12422667D01*
X13650619Y-12432190D01*
X13660143Y-12451238D01*
X13660143Y-12508381D01*
X13650619Y-12527428D01*
X13641095Y-12536952D01*
X13622048Y-12546476D01*
X13593476Y-12546476D01*
X13774428Y-12546476D02*
X13755381Y-12536952D01*
X13745857Y-12517905D01*
X13745857Y-12346476D01*
X13926809Y-12536952D02*
X13907762Y-12546476D01*
X13869667Y-12546476D01*
X13850619Y-12536952D01*
X13841095Y-12517905D01*
X13841095Y-12441714D01*
X13850619Y-12422667D01*
X13869667Y-12413143D01*
X13907762Y-12413143D01*
X13926809Y-12422667D01*
X13936333Y-12441714D01*
X13936333Y-12460762D01*
X13841095Y-12479809D01*
X14012524Y-12536952D02*
X14031571Y-12546476D01*
X14069667Y-12546476D01*
X14088714Y-12536952D01*
X14098238Y-12517905D01*
X14098238Y-12508381D01*
X14088714Y-12489333D01*
X14069667Y-12479809D01*
X14041095Y-12479809D01*
X14022048Y-12470286D01*
X14012524Y-12451238D01*
X14012524Y-12441714D01*
X14022048Y-12422667D01*
X14041095Y-12413143D01*
X14069667Y-12413143D01*
X14088714Y-12422667D01*
X14164905Y-12622667D02*
X14174428Y-12613143D01*
X14193476Y-12584571D01*
X14203000Y-12565524D01*
X14212524Y-12536952D01*
X14222048Y-12489333D01*
X14222048Y-12451238D01*
X14212524Y-12403619D01*
X14203000Y-12375048D01*
X14193476Y-12356000D01*
X14174428Y-12327428D01*
X14164905Y-12317905D01*
D10*
X9393000Y-12720000D02*
G75*
G03*
X9393000Y-12720000I-50000J0D01*
G01*
D11*
X9755381Y-12810476D02*
X9641095Y-12810476D01*
X9698238Y-12810476D02*
X9698238Y-12610476D01*
X9679190Y-12639048D01*
X9660143Y-12658095D01*
X9641095Y-12667619D01*
X9841095Y-12791428D02*
X9850619Y-12800952D01*
X9841095Y-12810476D01*
X9831571Y-12800952D01*
X9841095Y-12791428D01*
X9841095Y-12810476D01*
X9974429Y-12610476D02*
X9993476Y-12610476D01*
X10012524Y-12620000D01*
X10022048Y-12629524D01*
X10031571Y-12648571D01*
X10041095Y-12686667D01*
X10041095Y-12734286D01*
X10031571Y-12772381D01*
X10022048Y-12791428D01*
X10012524Y-12800952D01*
X9993476Y-12810476D01*
X9974429Y-12810476D01*
X9955381Y-12800952D01*
X9945857Y-12791428D01*
X9936333Y-12772381D01*
X9926810Y-12734286D01*
X9926810Y-12686667D01*
X9936333Y-12648571D01*
X9945857Y-12629524D01*
X9955381Y-12620000D01*
X9974429Y-12610476D01*
X10164905Y-12610476D02*
X10183952Y-12610476D01*
X10203000Y-12620000D01*
X10212524Y-12629524D01*
X10222048Y-12648571D01*
X10231571Y-12686667D01*
X10231571Y-12734286D01*
X10222048Y-12772381D01*
X10212524Y-12791428D01*
X10203000Y-12800952D01*
X10183952Y-12810476D01*
X10164905Y-12810476D01*
X10145857Y-12800952D01*
X10136333Y-12791428D01*
X10126810Y-12772381D01*
X10117286Y-12734286D01*
X10117286Y-12686667D01*
X10126810Y-12648571D01*
X10136333Y-12629524D01*
X10145857Y-12620000D01*
X10164905Y-12610476D01*
X10355381Y-12610476D02*
X10374429Y-12610476D01*
X10393476Y-12620000D01*
X10403000Y-12629524D01*
X10412524Y-12648571D01*
X10422048Y-12686667D01*
X10422048Y-12734286D01*
X10412524Y-12772381D01*
X10403000Y-12791428D01*
X10393476Y-12800952D01*
X10374429Y-12810476D01*
X10355381Y-12810476D01*
X10336333Y-12800952D01*
X10326810Y-12791428D01*
X10317286Y-12772381D01*
X10307762Y-12734286D01*
X10307762Y-12686667D01*
X10317286Y-12648571D01*
X10326810Y-12629524D01*
X10336333Y-12620000D01*
X10355381Y-12610476D01*
X10507762Y-12810476D02*
X10507762Y-12677143D01*
X10507762Y-12696190D02*
X10517286Y-12686667D01*
X10536333Y-12677143D01*
X10564905Y-12677143D01*
X10583952Y-12686667D01*
X10593476Y-12705714D01*
X10593476Y-12810476D01*
X10593476Y-12705714D02*
X10603000Y-12686667D01*
X10622048Y-12677143D01*
X10650619Y-12677143D01*
X10669667Y-12686667D01*
X10679190Y-12705714D01*
X10679190Y-12810476D01*
X10774429Y-12810476D02*
X10774429Y-12677143D01*
X10774429Y-12696190D02*
X10783952Y-12686667D01*
X10803000Y-12677143D01*
X10831571Y-12677143D01*
X10850619Y-12686667D01*
X10860143Y-12705714D01*
X10860143Y-12810476D01*
X10860143Y-12705714D02*
X10869667Y-12686667D01*
X10888714Y-12677143D01*
X10917286Y-12677143D01*
X10936333Y-12686667D01*
X10945857Y-12705714D01*
X10945857Y-12810476D01*
X11336333Y-12600952D02*
X11164905Y-12858095D01*
X11593476Y-12610476D02*
X11612524Y-12610476D01*
X11631571Y-12620000D01*
X11641095Y-12629524D01*
X11650619Y-12648571D01*
X11660143Y-12686667D01*
X11660143Y-12734286D01*
X11650619Y-12772381D01*
X11641095Y-12791428D01*
X11631571Y-12800952D01*
X11612524Y-12810476D01*
X11593476Y-12810476D01*
X11574428Y-12800952D01*
X11564905Y-12791428D01*
X11555381Y-12772381D01*
X11545857Y-12734286D01*
X11545857Y-12686667D01*
X11555381Y-12648571D01*
X11564905Y-12629524D01*
X11574428Y-12620000D01*
X11593476Y-12610476D01*
X11745857Y-12791428D02*
X11755381Y-12800952D01*
X11745857Y-12810476D01*
X11736333Y-12800952D01*
X11745857Y-12791428D01*
X11745857Y-12810476D01*
X11879190Y-12610476D02*
X11898238Y-12610476D01*
X11917286Y-12620000D01*
X11926809Y-12629524D01*
X11936333Y-12648571D01*
X11945857Y-12686667D01*
X11945857Y-12734286D01*
X11936333Y-12772381D01*
X11926809Y-12791428D01*
X11917286Y-12800952D01*
X11898238Y-12810476D01*
X11879190Y-12810476D01*
X11860143Y-12800952D01*
X11850619Y-12791428D01*
X11841095Y-12772381D01*
X11831571Y-12734286D01*
X11831571Y-12686667D01*
X11841095Y-12648571D01*
X11850619Y-12629524D01*
X11860143Y-12620000D01*
X11879190Y-12610476D01*
X12012524Y-12610476D02*
X12136333Y-12610476D01*
X12069667Y-12686667D01*
X12098238Y-12686667D01*
X12117286Y-12696190D01*
X12126809Y-12705714D01*
X12136333Y-12724762D01*
X12136333Y-12772381D01*
X12126809Y-12791428D01*
X12117286Y-12800952D01*
X12098238Y-12810476D01*
X12041095Y-12810476D01*
X12022048Y-12800952D01*
X12012524Y-12791428D01*
X12231571Y-12810476D02*
X12269667Y-12810476D01*
X12288714Y-12800952D01*
X12298238Y-12791428D01*
X12317286Y-12762857D01*
X12326809Y-12724762D01*
X12326809Y-12648571D01*
X12317286Y-12629524D01*
X12307762Y-12620000D01*
X12288714Y-12610476D01*
X12250619Y-12610476D01*
X12231571Y-12620000D01*
X12222048Y-12629524D01*
X12212524Y-12648571D01*
X12212524Y-12696190D01*
X12222048Y-12715238D01*
X12231571Y-12724762D01*
X12250619Y-12734286D01*
X12288714Y-12734286D01*
X12307762Y-12724762D01*
X12317286Y-12715238D01*
X12326809Y-12696190D01*
X12498238Y-12677143D02*
X12498238Y-12810476D01*
X12450619Y-12600952D02*
X12403000Y-12743809D01*
X12526809Y-12743809D01*
X12593476Y-12610476D02*
X12593476Y-12648571D01*
X12669667Y-12610476D02*
X12669667Y-12648571D01*
X12964905Y-12886667D02*
X12955381Y-12877143D01*
X12936333Y-12848571D01*
X12926809Y-12829524D01*
X12917286Y-12800952D01*
X12907762Y-12753333D01*
X12907762Y-12715238D01*
X12917286Y-12667619D01*
X12926809Y-12639048D01*
X12936333Y-12620000D01*
X12955381Y-12591428D01*
X12964905Y-12581905D01*
X13126809Y-12677143D02*
X13126809Y-12810476D01*
X13079190Y-12600952D02*
X13031571Y-12743809D01*
X13155381Y-12743809D01*
X13241095Y-12810476D02*
X13279190Y-12810476D01*
X13298238Y-12800952D01*
X13307762Y-12791428D01*
X13326809Y-12762857D01*
X13336333Y-12724762D01*
X13336333Y-12648571D01*
X13326809Y-12629524D01*
X13317286Y-12620000D01*
X13298238Y-12610476D01*
X13260143Y-12610476D01*
X13241095Y-12620000D01*
X13231571Y-12629524D01*
X13222048Y-12648571D01*
X13222048Y-12696190D01*
X13231571Y-12715238D01*
X13241095Y-12724762D01*
X13260143Y-12734286D01*
X13298238Y-12734286D01*
X13317286Y-12724762D01*
X13326809Y-12715238D01*
X13336333Y-12696190D01*
X13574428Y-12810476D02*
X13574428Y-12610476D01*
X13660143Y-12810476D02*
X13660143Y-12705714D01*
X13650619Y-12686667D01*
X13631571Y-12677143D01*
X13603000Y-12677143D01*
X13583952Y-12686667D01*
X13574428Y-12696190D01*
X13783952Y-12810476D02*
X13764905Y-12800952D01*
X13755381Y-12791428D01*
X13745857Y-12772381D01*
X13745857Y-12715238D01*
X13755381Y-12696190D01*
X13764905Y-12686667D01*
X13783952Y-12677143D01*
X13812524Y-12677143D01*
X13831571Y-12686667D01*
X13841095Y-12696190D01*
X13850619Y-12715238D01*
X13850619Y-12772381D01*
X13841095Y-12791428D01*
X13831571Y-12800952D01*
X13812524Y-12810476D01*
X13783952Y-12810476D01*
X13964905Y-12810476D02*
X13945857Y-12800952D01*
X13936333Y-12781905D01*
X13936333Y-12610476D01*
X14117286Y-12800952D02*
X14098238Y-12810476D01*
X14060143Y-12810476D01*
X14041095Y-12800952D01*
X14031571Y-12781905D01*
X14031571Y-12705714D01*
X14041095Y-12686667D01*
X14060143Y-12677143D01*
X14098238Y-12677143D01*
X14117286Y-12686667D01*
X14126809Y-12705714D01*
X14126809Y-12724762D01*
X14031571Y-12743809D01*
X14203000Y-12800952D02*
X14222048Y-12810476D01*
X14260143Y-12810476D01*
X14279190Y-12800952D01*
X14288714Y-12781905D01*
X14288714Y-12772381D01*
X14279190Y-12753333D01*
X14260143Y-12743809D01*
X14231571Y-12743809D01*
X14212524Y-12734286D01*
X14203000Y-12715238D01*
X14203000Y-12705714D01*
X14212524Y-12686667D01*
X14231571Y-12677143D01*
X14260143Y-12677143D01*
X14279190Y-12686667D01*
X14355381Y-12886667D02*
X14364905Y-12877143D01*
X14383952Y-12848571D01*
X14393476Y-12829524D01*
X14403000Y-12800952D01*
X14412524Y-12753333D01*
X14412524Y-12715238D01*
X14403000Y-12667619D01*
X14393476Y-12639048D01*
X14383952Y-12620000D01*
X14364905Y-12591428D01*
X14355381Y-12581905D01*
M02*
