G04 #@! TF.GenerationSoftware,KiCad,Pcbnew,(6.0.10)*
G04 #@! TF.CreationDate,2024-05-09T20:32:42+03:00*
G04 #@! TF.ProjectId,iot-robots,696f742d-726f-4626-9f74-732e6b696361,rev?*
G04 #@! TF.SameCoordinates,Original*
G04 #@! TF.FileFunction,Copper,L2,Bot*
G04 #@! TF.FilePolarity,Positive*
%FSLAX46Y46*%
G04 Gerber Fmt 4.6, Leading zero omitted, Abs format (unit mm)*
G04 Created by KiCad (PCBNEW (6.0.10)) date 2024-05-09 20:32:42*
%MOMM*%
%LPD*%
G01*
G04 APERTURE LIST*
G04 #@! TA.AperFunction,ComponentPad*
%ADD10R,1.700000X1.700000*%
G04 #@! TD*
G04 #@! TA.AperFunction,ComponentPad*
%ADD11O,1.700000X1.700000*%
G04 #@! TD*
G04 #@! TA.AperFunction,ComponentPad*
%ADD12R,1.600000X1.600000*%
G04 #@! TD*
G04 #@! TA.AperFunction,ComponentPad*
%ADD13O,1.600000X1.600000*%
G04 #@! TD*
G04 #@! TA.AperFunction,ViaPad*
%ADD14C,0.800000*%
G04 #@! TD*
G04 #@! TA.AperFunction,Conductor*
%ADD15C,0.250000*%
G04 #@! TD*
G04 APERTURE END LIST*
D10*
X120650000Y-114935000D03*
D11*
X123190000Y-114935000D03*
D10*
X120650000Y-105410000D03*
D11*
X120650000Y-107950000D03*
X120650000Y-110490000D03*
D10*
X120650000Y-85090000D03*
D11*
X120650000Y-87630000D03*
X120650000Y-90170000D03*
X120650000Y-92710000D03*
X120650000Y-95250000D03*
X120650000Y-97790000D03*
D10*
X120650000Y-74930000D03*
D11*
X120650000Y-77470000D03*
X139700000Y-74930000D03*
X137160000Y-74930000D03*
X134620000Y-74930000D03*
X132080000Y-74930000D03*
X129540000Y-74930000D03*
D10*
X127000000Y-74930000D03*
D12*
X99050000Y-77470000D03*
D13*
X99050000Y-80010000D03*
X99050000Y-82550000D03*
X99050000Y-85090000D03*
X99050000Y-87630000D03*
X99050000Y-90170000D03*
X99050000Y-92710000D03*
X99050000Y-95250000D03*
X99050000Y-97790000D03*
X99050000Y-100330000D03*
X99050000Y-102870000D03*
X99050000Y-105410000D03*
X99050000Y-107950000D03*
X99050000Y-110490000D03*
X99050000Y-113030000D03*
X114290000Y-113030000D03*
X114290000Y-110490000D03*
X114290000Y-107950000D03*
X114290000Y-105410000D03*
X114290000Y-102870000D03*
X114290000Y-100330000D03*
X114290000Y-97790000D03*
X114290000Y-95250000D03*
X114290000Y-92710000D03*
X114290000Y-90170000D03*
X114290000Y-87630000D03*
X114290000Y-85090000D03*
X114290000Y-82550000D03*
X114290000Y-80010000D03*
X114290000Y-77470000D03*
D14*
X132080000Y-90170000D03*
X124460000Y-92710000D03*
X124460000Y-78740000D03*
D15*
X130810000Y-90170000D02*
X132080000Y-90170000D01*
X124460000Y-90170000D02*
X124460000Y-92710000D01*
X124460000Y-78740000D02*
X124460000Y-90170000D01*
X124460000Y-90170000D02*
X130810000Y-90170000D01*
G04 #@! TA.AperFunction,Conductor*
G36*
X141673621Y-70378502D02*
G01*
X141720114Y-70432158D01*
X141731500Y-70484500D01*
X141731500Y-117475500D01*
X141711498Y-117543621D01*
X141657842Y-117590114D01*
X141605500Y-117601500D01*
X94614500Y-117601500D01*
X94546379Y-117581498D01*
X94499886Y-117527842D01*
X94488500Y-117475500D01*
X94488500Y-115833134D01*
X119291500Y-115833134D01*
X119298255Y-115895316D01*
X119349385Y-116031705D01*
X119436739Y-116148261D01*
X119553295Y-116235615D01*
X119689684Y-116286745D01*
X119751866Y-116293500D01*
X121548134Y-116293500D01*
X121610316Y-116286745D01*
X121746705Y-116235615D01*
X121863261Y-116148261D01*
X121950615Y-116031705D01*
X121972799Y-115972529D01*
X121994598Y-115914382D01*
X122037240Y-115857618D01*
X122103802Y-115832918D01*
X122173150Y-115848126D01*
X122207817Y-115876114D01*
X122236250Y-115908938D01*
X122408126Y-116051632D01*
X122601000Y-116164338D01*
X122809692Y-116244030D01*
X122814760Y-116245061D01*
X122814763Y-116245062D01*
X122922017Y-116266883D01*
X123028597Y-116288567D01*
X123033772Y-116288757D01*
X123033774Y-116288757D01*
X123246673Y-116296564D01*
X123246677Y-116296564D01*
X123251837Y-116296753D01*
X123256957Y-116296097D01*
X123256959Y-116296097D01*
X123468288Y-116269025D01*
X123468289Y-116269025D01*
X123473416Y-116268368D01*
X123478366Y-116266883D01*
X123682429Y-116205661D01*
X123682434Y-116205659D01*
X123687384Y-116204174D01*
X123887994Y-116105896D01*
X124069860Y-115976173D01*
X124228096Y-115818489D01*
X124358453Y-115637077D01*
X124457430Y-115436811D01*
X124522370Y-115223069D01*
X124551529Y-115001590D01*
X124553156Y-114935000D01*
X124534852Y-114712361D01*
X124480431Y-114495702D01*
X124391354Y-114290840D01*
X124351906Y-114229862D01*
X124272822Y-114107617D01*
X124272820Y-114107614D01*
X124270014Y-114103277D01*
X124119670Y-113938051D01*
X124115619Y-113934852D01*
X124115615Y-113934848D01*
X123948414Y-113802800D01*
X123948410Y-113802798D01*
X123944359Y-113799598D01*
X123748789Y-113691638D01*
X123743920Y-113689914D01*
X123743916Y-113689912D01*
X123543087Y-113618795D01*
X123543083Y-113618794D01*
X123538212Y-113617069D01*
X123533119Y-113616162D01*
X123533116Y-113616161D01*
X123323373Y-113578800D01*
X123323367Y-113578799D01*
X123318284Y-113577894D01*
X123244452Y-113576992D01*
X123100081Y-113575228D01*
X123100079Y-113575228D01*
X123094911Y-113575165D01*
X122874091Y-113608955D01*
X122661756Y-113678357D01*
X122463607Y-113781507D01*
X122459474Y-113784610D01*
X122459471Y-113784612D01*
X122289100Y-113912530D01*
X122284965Y-113915635D01*
X122228537Y-113974684D01*
X122204283Y-114000064D01*
X122142759Y-114035494D01*
X122071846Y-114032037D01*
X122014060Y-113990791D01*
X121995207Y-113957243D01*
X121953767Y-113846703D01*
X121950615Y-113838295D01*
X121863261Y-113721739D01*
X121746705Y-113634385D01*
X121610316Y-113583255D01*
X121548134Y-113576500D01*
X119751866Y-113576500D01*
X119689684Y-113583255D01*
X119553295Y-113634385D01*
X119436739Y-113721739D01*
X119349385Y-113838295D01*
X119298255Y-113974684D01*
X119291500Y-114036866D01*
X119291500Y-115833134D01*
X94488500Y-115833134D01*
X94488500Y-113030000D01*
X97736502Y-113030000D01*
X97756457Y-113258087D01*
X97815716Y-113479243D01*
X97818039Y-113484224D01*
X97818039Y-113484225D01*
X97910151Y-113681762D01*
X97910154Y-113681767D01*
X97912477Y-113686749D01*
X97981002Y-113784612D01*
X97989747Y-113797101D01*
X98043802Y-113874300D01*
X98205700Y-114036198D01*
X98210208Y-114039355D01*
X98210211Y-114039357D01*
X98264168Y-114077138D01*
X98393251Y-114167523D01*
X98398233Y-114169846D01*
X98398238Y-114169849D01*
X98595775Y-114261961D01*
X98600757Y-114264284D01*
X98606065Y-114265706D01*
X98606067Y-114265707D01*
X98816598Y-114322119D01*
X98816600Y-114322119D01*
X98821913Y-114323543D01*
X99050000Y-114343498D01*
X99278087Y-114323543D01*
X99283400Y-114322119D01*
X99283402Y-114322119D01*
X99493933Y-114265707D01*
X99493935Y-114265706D01*
X99499243Y-114264284D01*
X99504225Y-114261961D01*
X99701762Y-114169849D01*
X99701767Y-114169846D01*
X99706749Y-114167523D01*
X99835832Y-114077138D01*
X99889789Y-114039357D01*
X99889792Y-114039355D01*
X99894300Y-114036198D01*
X100056198Y-113874300D01*
X100110254Y-113797101D01*
X100118998Y-113784612D01*
X100187523Y-113686749D01*
X100189846Y-113681767D01*
X100189849Y-113681762D01*
X100281961Y-113484225D01*
X100281961Y-113484224D01*
X100284284Y-113479243D01*
X100343543Y-113258087D01*
X100363498Y-113030000D01*
X112976502Y-113030000D01*
X112996457Y-113258087D01*
X113055716Y-113479243D01*
X113058039Y-113484224D01*
X113058039Y-113484225D01*
X113150151Y-113681762D01*
X113150154Y-113681767D01*
X113152477Y-113686749D01*
X113221002Y-113784612D01*
X113229747Y-113797101D01*
X113283802Y-113874300D01*
X113445700Y-114036198D01*
X113450208Y-114039355D01*
X113450211Y-114039357D01*
X113504168Y-114077138D01*
X113633251Y-114167523D01*
X113638233Y-114169846D01*
X113638238Y-114169849D01*
X113835775Y-114261961D01*
X113840757Y-114264284D01*
X113846065Y-114265706D01*
X113846067Y-114265707D01*
X114056598Y-114322119D01*
X114056600Y-114322119D01*
X114061913Y-114323543D01*
X114290000Y-114343498D01*
X114518087Y-114323543D01*
X114523400Y-114322119D01*
X114523402Y-114322119D01*
X114733933Y-114265707D01*
X114733935Y-114265706D01*
X114739243Y-114264284D01*
X114744225Y-114261961D01*
X114941762Y-114169849D01*
X114941767Y-114169846D01*
X114946749Y-114167523D01*
X115075832Y-114077138D01*
X115129789Y-114039357D01*
X115129792Y-114039355D01*
X115134300Y-114036198D01*
X115296198Y-113874300D01*
X115350254Y-113797101D01*
X115358998Y-113784612D01*
X115427523Y-113686749D01*
X115429846Y-113681767D01*
X115429849Y-113681762D01*
X115521961Y-113484225D01*
X115521961Y-113484224D01*
X115524284Y-113479243D01*
X115583543Y-113258087D01*
X115603498Y-113030000D01*
X115583543Y-112801913D01*
X115524284Y-112580757D01*
X115521961Y-112575775D01*
X115429849Y-112378238D01*
X115429846Y-112378233D01*
X115427523Y-112373251D01*
X115296198Y-112185700D01*
X115134300Y-112023802D01*
X115129792Y-112020645D01*
X115129789Y-112020643D01*
X115051611Y-111965902D01*
X114946749Y-111892477D01*
X114941767Y-111890154D01*
X114941762Y-111890151D01*
X114907543Y-111874195D01*
X114854258Y-111827278D01*
X114834797Y-111759001D01*
X114855339Y-111691041D01*
X114907543Y-111645805D01*
X114941762Y-111629849D01*
X114941767Y-111629846D01*
X114946749Y-111627523D01*
X115051611Y-111554098D01*
X115129789Y-111499357D01*
X115129792Y-111499355D01*
X115134300Y-111496198D01*
X115296198Y-111334300D01*
X115427523Y-111146749D01*
X115429846Y-111141767D01*
X115429849Y-111141762D01*
X115521961Y-110944225D01*
X115521961Y-110944224D01*
X115524284Y-110939243D01*
X115572858Y-110757966D01*
X119318257Y-110757966D01*
X119348565Y-110892446D01*
X119351645Y-110902275D01*
X119431770Y-111099603D01*
X119436413Y-111108794D01*
X119547694Y-111290388D01*
X119553777Y-111298699D01*
X119693213Y-111459667D01*
X119700580Y-111466883D01*
X119864434Y-111602916D01*
X119872881Y-111608831D01*
X120056756Y-111716279D01*
X120066042Y-111720729D01*
X120265001Y-111796703D01*
X120274899Y-111799579D01*
X120378250Y-111820606D01*
X120392299Y-111819410D01*
X120396000Y-111809065D01*
X120396000Y-111808517D01*
X120904000Y-111808517D01*
X120908064Y-111822359D01*
X120921478Y-111824393D01*
X120928184Y-111823534D01*
X120938262Y-111821392D01*
X121142255Y-111760191D01*
X121151842Y-111756433D01*
X121343095Y-111662739D01*
X121351945Y-111657464D01*
X121525328Y-111533792D01*
X121533200Y-111527139D01*
X121684052Y-111376812D01*
X121690730Y-111368965D01*
X121815003Y-111196020D01*
X121820313Y-111187183D01*
X121914670Y-110996267D01*
X121918469Y-110986672D01*
X121980377Y-110782910D01*
X121982555Y-110772837D01*
X121983986Y-110761962D01*
X121981775Y-110747778D01*
X121968617Y-110744000D01*
X120922115Y-110744000D01*
X120906876Y-110748475D01*
X120905671Y-110749865D01*
X120904000Y-110757548D01*
X120904000Y-111808517D01*
X120396000Y-111808517D01*
X120396000Y-110762115D01*
X120391525Y-110746876D01*
X120390135Y-110745671D01*
X120382452Y-110744000D01*
X119333225Y-110744000D01*
X119319694Y-110747973D01*
X119318257Y-110757966D01*
X115572858Y-110757966D01*
X115582119Y-110723402D01*
X115582119Y-110723400D01*
X115583543Y-110718087D01*
X115603498Y-110490000D01*
X115583543Y-110261913D01*
X115576600Y-110236000D01*
X115525707Y-110046067D01*
X115525706Y-110046065D01*
X115524284Y-110040757D01*
X115435713Y-109850814D01*
X115429849Y-109838238D01*
X115429846Y-109838233D01*
X115427523Y-109833251D01*
X115296198Y-109645700D01*
X115134300Y-109483802D01*
X115129792Y-109480645D01*
X115129789Y-109480643D01*
X115051611Y-109425902D01*
X114946749Y-109352477D01*
X114941767Y-109350154D01*
X114941762Y-109350151D01*
X114907543Y-109334195D01*
X114854258Y-109287278D01*
X114834797Y-109219001D01*
X114855339Y-109151041D01*
X114907543Y-109105805D01*
X114941762Y-109089849D01*
X114941767Y-109089846D01*
X114946749Y-109087523D01*
X115089555Y-108987529D01*
X115129789Y-108959357D01*
X115129792Y-108959355D01*
X115134300Y-108956198D01*
X115296198Y-108794300D01*
X115320923Y-108758990D01*
X115424366Y-108611257D01*
X115427523Y-108606749D01*
X115429846Y-108601767D01*
X115429849Y-108601762D01*
X115521961Y-108404225D01*
X115521961Y-108404224D01*
X115524284Y-108399243D01*
X115534150Y-108362425D01*
X115582119Y-108183402D01*
X115582119Y-108183400D01*
X115583543Y-108178087D01*
X115603498Y-107950000D01*
X115600584Y-107916695D01*
X119287251Y-107916695D01*
X119287548Y-107921848D01*
X119287548Y-107921851D01*
X119293011Y-108016590D01*
X119300110Y-108139715D01*
X119301247Y-108144761D01*
X119301248Y-108144767D01*
X119309955Y-108183402D01*
X119349222Y-108357639D01*
X119433266Y-108564616D01*
X119549987Y-108755088D01*
X119696250Y-108923938D01*
X119868126Y-109066632D01*
X119935163Y-109105805D01*
X119941955Y-109109774D01*
X119990679Y-109161412D01*
X120003750Y-109231195D01*
X119977019Y-109296967D01*
X119936562Y-109330327D01*
X119928457Y-109334546D01*
X119919738Y-109340036D01*
X119749433Y-109467905D01*
X119741726Y-109474748D01*
X119594590Y-109628717D01*
X119588104Y-109636727D01*
X119468098Y-109812649D01*
X119463000Y-109821623D01*
X119373338Y-110014783D01*
X119369775Y-110024470D01*
X119314389Y-110224183D01*
X119315912Y-110232607D01*
X119328292Y-110236000D01*
X121968344Y-110236000D01*
X121981875Y-110232027D01*
X121983180Y-110222947D01*
X121941214Y-110055875D01*
X121937894Y-110046124D01*
X121852972Y-109850814D01*
X121848105Y-109841739D01*
X121732426Y-109662926D01*
X121726136Y-109654757D01*
X121582806Y-109497240D01*
X121575273Y-109490215D01*
X121408139Y-109358222D01*
X121399556Y-109352520D01*
X121362602Y-109332120D01*
X121312631Y-109281687D01*
X121297859Y-109212245D01*
X121322975Y-109145839D01*
X121350327Y-109119232D01*
X121373797Y-109102491D01*
X121529860Y-108991173D01*
X121561788Y-108959357D01*
X121684435Y-108837137D01*
X121688096Y-108833489D01*
X121719498Y-108789789D01*
X121815435Y-108656277D01*
X121818453Y-108652077D01*
X121838628Y-108611257D01*
X121915136Y-108456453D01*
X121915137Y-108456451D01*
X121917430Y-108451811D01*
X121982370Y-108238069D01*
X122011529Y-108016590D01*
X122013156Y-107950000D01*
X121994852Y-107727361D01*
X121940431Y-107510702D01*
X121851354Y-107305840D01*
X121730014Y-107118277D01*
X121715024Y-107101803D01*
X121582798Y-106956488D01*
X121551746Y-106892642D01*
X121560141Y-106822143D01*
X121605317Y-106767375D01*
X121631761Y-106753706D01*
X121738297Y-106713767D01*
X121746705Y-106710615D01*
X121863261Y-106623261D01*
X121950615Y-106506705D01*
X122001745Y-106370316D01*
X122008500Y-106308134D01*
X122008500Y-104511866D01*
X122001745Y-104449684D01*
X121950615Y-104313295D01*
X121863261Y-104196739D01*
X121746705Y-104109385D01*
X121610316Y-104058255D01*
X121548134Y-104051500D01*
X119751866Y-104051500D01*
X119689684Y-104058255D01*
X119553295Y-104109385D01*
X119436739Y-104196739D01*
X119349385Y-104313295D01*
X119298255Y-104449684D01*
X119291500Y-104511866D01*
X119291500Y-106308134D01*
X119298255Y-106370316D01*
X119349385Y-106506705D01*
X119436739Y-106623261D01*
X119553295Y-106710615D01*
X119561704Y-106713767D01*
X119561705Y-106713768D01*
X119670451Y-106754535D01*
X119727216Y-106797176D01*
X119751916Y-106863738D01*
X119736709Y-106933087D01*
X119717316Y-106959568D01*
X119590629Y-107092138D01*
X119587715Y-107096410D01*
X119587714Y-107096411D01*
X119578300Y-107110211D01*
X119464743Y-107276680D01*
X119370688Y-107479305D01*
X119310989Y-107694570D01*
X119287251Y-107916695D01*
X115600584Y-107916695D01*
X115583543Y-107721913D01*
X115577593Y-107699707D01*
X115525707Y-107506067D01*
X115525706Y-107506065D01*
X115524284Y-107500757D01*
X115512092Y-107474610D01*
X115429849Y-107298238D01*
X115429846Y-107298233D01*
X115427523Y-107293251D01*
X115354098Y-107188389D01*
X115299357Y-107110211D01*
X115299355Y-107110208D01*
X115296198Y-107105700D01*
X115134300Y-106943802D01*
X115129792Y-106940645D01*
X115129789Y-106940643D01*
X114960553Y-106822143D01*
X114946749Y-106812477D01*
X114941767Y-106810154D01*
X114941762Y-106810151D01*
X114907543Y-106794195D01*
X114854258Y-106747278D01*
X114834797Y-106679001D01*
X114855339Y-106611041D01*
X114907543Y-106565805D01*
X114941762Y-106549849D01*
X114941767Y-106549846D01*
X114946749Y-106547523D01*
X115051611Y-106474098D01*
X115129789Y-106419357D01*
X115129792Y-106419355D01*
X115134300Y-106416198D01*
X115296198Y-106254300D01*
X115427523Y-106066749D01*
X115429846Y-106061767D01*
X115429849Y-106061762D01*
X115521961Y-105864225D01*
X115521961Y-105864224D01*
X115524284Y-105859243D01*
X115583543Y-105638087D01*
X115603498Y-105410000D01*
X115583543Y-105181913D01*
X115524284Y-104960757D01*
X115521961Y-104955775D01*
X115429849Y-104758238D01*
X115429846Y-104758233D01*
X115427523Y-104753251D01*
X115296198Y-104565700D01*
X115134300Y-104403802D01*
X115129792Y-104400645D01*
X115129789Y-104400643D01*
X114994780Y-104306109D01*
X114946749Y-104272477D01*
X114941767Y-104270154D01*
X114941762Y-104270151D01*
X114907543Y-104254195D01*
X114854258Y-104207278D01*
X114834797Y-104139001D01*
X114855339Y-104071041D01*
X114907543Y-104025805D01*
X114941762Y-104009849D01*
X114941767Y-104009846D01*
X114946749Y-104007523D01*
X115051611Y-103934098D01*
X115129789Y-103879357D01*
X115129792Y-103879355D01*
X115134300Y-103876198D01*
X115296198Y-103714300D01*
X115427523Y-103526749D01*
X115429846Y-103521767D01*
X115429849Y-103521762D01*
X115521961Y-103324225D01*
X115521961Y-103324224D01*
X115524284Y-103319243D01*
X115583543Y-103098087D01*
X115603498Y-102870000D01*
X115583543Y-102641913D01*
X115524284Y-102420757D01*
X115521961Y-102415775D01*
X115429849Y-102218238D01*
X115429846Y-102218233D01*
X115427523Y-102213251D01*
X115296198Y-102025700D01*
X115134300Y-101863802D01*
X115129792Y-101860645D01*
X115129789Y-101860643D01*
X115051611Y-101805902D01*
X114946749Y-101732477D01*
X114941767Y-101730154D01*
X114941762Y-101730151D01*
X114907543Y-101714195D01*
X114854258Y-101667278D01*
X114834797Y-101599001D01*
X114855339Y-101531041D01*
X114907543Y-101485805D01*
X114941762Y-101469849D01*
X114941767Y-101469846D01*
X114946749Y-101467523D01*
X115051611Y-101394098D01*
X115129789Y-101339357D01*
X115129792Y-101339355D01*
X115134300Y-101336198D01*
X115296198Y-101174300D01*
X115427523Y-100986749D01*
X115429846Y-100981767D01*
X115429849Y-100981762D01*
X115521961Y-100784225D01*
X115521961Y-100784224D01*
X115524284Y-100779243D01*
X115583543Y-100558087D01*
X115603498Y-100330000D01*
X115583543Y-100101913D01*
X115524284Y-99880757D01*
X115521961Y-99875775D01*
X115429849Y-99678238D01*
X115429846Y-99678233D01*
X115427523Y-99673251D01*
X115296198Y-99485700D01*
X115134300Y-99323802D01*
X115129792Y-99320645D01*
X115129789Y-99320643D01*
X115051611Y-99265902D01*
X114946749Y-99192477D01*
X114941767Y-99190154D01*
X114941762Y-99190151D01*
X114907543Y-99174195D01*
X114854258Y-99127278D01*
X114834797Y-99059001D01*
X114855339Y-98991041D01*
X114907543Y-98945805D01*
X114941762Y-98929849D01*
X114941767Y-98929846D01*
X114946749Y-98927523D01*
X115089555Y-98827529D01*
X115129789Y-98799357D01*
X115129792Y-98799355D01*
X115134300Y-98796198D01*
X115296198Y-98634300D01*
X115320923Y-98598990D01*
X115424366Y-98451257D01*
X115427523Y-98446749D01*
X115429846Y-98441767D01*
X115429849Y-98441762D01*
X115521961Y-98244225D01*
X115521961Y-98244224D01*
X115524284Y-98239243D01*
X115534150Y-98202425D01*
X115582119Y-98023402D01*
X115582119Y-98023400D01*
X115583543Y-98018087D01*
X115603498Y-97790000D01*
X115600584Y-97756695D01*
X119287251Y-97756695D01*
X119287548Y-97761848D01*
X119287548Y-97761851D01*
X119293011Y-97856590D01*
X119300110Y-97979715D01*
X119301247Y-97984761D01*
X119301248Y-97984767D01*
X119309955Y-98023402D01*
X119349222Y-98197639D01*
X119433266Y-98404616D01*
X119549987Y-98595088D01*
X119696250Y-98763938D01*
X119868126Y-98906632D01*
X120061000Y-99019338D01*
X120269692Y-99099030D01*
X120274760Y-99100061D01*
X120274763Y-99100062D01*
X120382017Y-99121883D01*
X120488597Y-99143567D01*
X120493772Y-99143757D01*
X120493774Y-99143757D01*
X120706673Y-99151564D01*
X120706677Y-99151564D01*
X120711837Y-99151753D01*
X120716957Y-99151097D01*
X120716959Y-99151097D01*
X120928288Y-99124025D01*
X120928289Y-99124025D01*
X120933416Y-99123368D01*
X120938366Y-99121883D01*
X121142429Y-99060661D01*
X121142434Y-99060659D01*
X121147384Y-99059174D01*
X121347994Y-98960896D01*
X121529860Y-98831173D01*
X121561788Y-98799357D01*
X121684435Y-98677137D01*
X121688096Y-98673489D01*
X121719498Y-98629789D01*
X121815435Y-98496277D01*
X121818453Y-98492077D01*
X121838628Y-98451257D01*
X121915136Y-98296453D01*
X121915137Y-98296451D01*
X121917430Y-98291811D01*
X121982370Y-98078069D01*
X122011529Y-97856590D01*
X122013156Y-97790000D01*
X121994852Y-97567361D01*
X121940431Y-97350702D01*
X121851354Y-97145840D01*
X121730014Y-96958277D01*
X121579670Y-96793051D01*
X121575619Y-96789852D01*
X121575615Y-96789848D01*
X121408414Y-96657800D01*
X121408410Y-96657798D01*
X121404359Y-96654598D01*
X121363053Y-96631796D01*
X121313084Y-96581364D01*
X121298312Y-96511921D01*
X121323428Y-96445516D01*
X121350780Y-96418909D01*
X121399207Y-96384366D01*
X121529860Y-96291173D01*
X121561788Y-96259357D01*
X121684435Y-96137137D01*
X121688096Y-96133489D01*
X121719498Y-96089789D01*
X121815435Y-95956277D01*
X121818453Y-95952077D01*
X121838628Y-95911257D01*
X121915136Y-95756453D01*
X121915137Y-95756451D01*
X121917430Y-95751811D01*
X121982370Y-95538069D01*
X122011529Y-95316590D01*
X122013156Y-95250000D01*
X121994852Y-95027361D01*
X121940431Y-94810702D01*
X121851354Y-94605840D01*
X121730014Y-94418277D01*
X121579670Y-94253051D01*
X121575619Y-94249852D01*
X121575615Y-94249848D01*
X121408414Y-94117800D01*
X121408410Y-94117798D01*
X121404359Y-94114598D01*
X121363053Y-94091796D01*
X121313084Y-94041364D01*
X121298312Y-93971921D01*
X121323428Y-93905516D01*
X121350780Y-93878909D01*
X121399207Y-93844366D01*
X121529860Y-93751173D01*
X121561788Y-93719357D01*
X121684435Y-93597137D01*
X121688096Y-93593489D01*
X121697670Y-93580166D01*
X121815435Y-93416277D01*
X121818453Y-93412077D01*
X121828006Y-93392749D01*
X121915136Y-93216453D01*
X121915137Y-93216451D01*
X121917430Y-93211811D01*
X121982370Y-92998069D01*
X122011529Y-92776590D01*
X122013156Y-92710000D01*
X123546496Y-92710000D01*
X123547186Y-92716565D01*
X123553844Y-92779908D01*
X123566458Y-92899928D01*
X123625473Y-93081556D01*
X123628776Y-93087278D01*
X123628777Y-93087279D01*
X123649069Y-93122425D01*
X123720960Y-93246944D01*
X123848747Y-93388866D01*
X124003248Y-93501118D01*
X124009276Y-93503802D01*
X124009278Y-93503803D01*
X124034625Y-93515088D01*
X124177712Y-93578794D01*
X124264009Y-93597137D01*
X124358056Y-93617128D01*
X124358061Y-93617128D01*
X124364513Y-93618500D01*
X124555487Y-93618500D01*
X124561939Y-93617128D01*
X124561944Y-93617128D01*
X124655991Y-93597137D01*
X124742288Y-93578794D01*
X124885375Y-93515088D01*
X124910722Y-93503803D01*
X124910724Y-93503802D01*
X124916752Y-93501118D01*
X125071253Y-93388866D01*
X125199040Y-93246944D01*
X125270931Y-93122425D01*
X125291223Y-93087279D01*
X125291224Y-93087278D01*
X125294527Y-93081556D01*
X125353542Y-92899928D01*
X125366157Y-92779908D01*
X125372814Y-92716565D01*
X125373504Y-92710000D01*
X125353542Y-92520072D01*
X125294527Y-92338444D01*
X125199040Y-92173056D01*
X125125863Y-92091785D01*
X125095147Y-92027779D01*
X125093500Y-92007476D01*
X125093500Y-90929500D01*
X125113502Y-90861379D01*
X125167158Y-90814886D01*
X125219500Y-90803500D01*
X131371800Y-90803500D01*
X131439921Y-90823502D01*
X131459147Y-90839843D01*
X131459420Y-90839540D01*
X131464332Y-90843963D01*
X131468747Y-90848866D01*
X131623248Y-90961118D01*
X131629276Y-90963802D01*
X131629278Y-90963803D01*
X131732565Y-91009789D01*
X131797712Y-91038794D01*
X131882480Y-91056812D01*
X131978056Y-91077128D01*
X131978061Y-91077128D01*
X131984513Y-91078500D01*
X132175487Y-91078500D01*
X132181939Y-91077128D01*
X132181944Y-91077128D01*
X132277520Y-91056812D01*
X132362288Y-91038794D01*
X132427435Y-91009789D01*
X132530722Y-90963803D01*
X132530724Y-90963802D01*
X132536752Y-90961118D01*
X132691253Y-90848866D01*
X132819040Y-90706944D01*
X132914527Y-90541556D01*
X132973542Y-90359928D01*
X132993504Y-90170000D01*
X132992814Y-90163435D01*
X132974232Y-89986635D01*
X132974232Y-89986633D01*
X132973542Y-89980072D01*
X132914527Y-89798444D01*
X132819040Y-89633056D01*
X132691253Y-89491134D01*
X132536752Y-89378882D01*
X132530724Y-89376198D01*
X132530722Y-89376197D01*
X132368319Y-89303891D01*
X132368318Y-89303891D01*
X132362288Y-89301206D01*
X132268887Y-89281353D01*
X132181944Y-89262872D01*
X132181939Y-89262872D01*
X132175487Y-89261500D01*
X131984513Y-89261500D01*
X131978061Y-89262872D01*
X131978056Y-89262872D01*
X131891113Y-89281353D01*
X131797712Y-89301206D01*
X131791682Y-89303891D01*
X131791681Y-89303891D01*
X131629278Y-89376197D01*
X131629276Y-89376198D01*
X131623248Y-89378882D01*
X131468747Y-89491134D01*
X131464332Y-89496037D01*
X131459420Y-89500460D01*
X131458295Y-89499211D01*
X131404986Y-89532051D01*
X131371800Y-89536500D01*
X125219500Y-89536500D01*
X125151379Y-89516498D01*
X125104886Y-89462842D01*
X125093500Y-89410500D01*
X125093500Y-79442524D01*
X125113502Y-79374403D01*
X125125858Y-79358221D01*
X125199040Y-79276944D01*
X125294527Y-79111556D01*
X125353542Y-78929928D01*
X125373504Y-78740000D01*
X125371467Y-78720615D01*
X125354232Y-78556635D01*
X125354232Y-78556633D01*
X125353542Y-78550072D01*
X125294527Y-78368444D01*
X125199040Y-78203056D01*
X125071253Y-78061134D01*
X124916752Y-77948882D01*
X124910724Y-77946198D01*
X124910722Y-77946197D01*
X124748319Y-77873891D01*
X124748318Y-77873891D01*
X124742288Y-77871206D01*
X124648888Y-77851353D01*
X124561944Y-77832872D01*
X124561939Y-77832872D01*
X124555487Y-77831500D01*
X124364513Y-77831500D01*
X124358061Y-77832872D01*
X124358056Y-77832872D01*
X124271112Y-77851353D01*
X124177712Y-77871206D01*
X124171682Y-77873891D01*
X124171681Y-77873891D01*
X124009278Y-77946197D01*
X124009276Y-77946198D01*
X124003248Y-77948882D01*
X123848747Y-78061134D01*
X123720960Y-78203056D01*
X123625473Y-78368444D01*
X123566458Y-78550072D01*
X123565768Y-78556633D01*
X123565768Y-78556635D01*
X123548533Y-78720615D01*
X123546496Y-78740000D01*
X123566458Y-78929928D01*
X123625473Y-79111556D01*
X123720960Y-79276944D01*
X123794137Y-79358215D01*
X123824853Y-79422221D01*
X123826500Y-79442524D01*
X123826500Y-90098207D01*
X123824268Y-90121816D01*
X123822725Y-90129906D01*
X123826251Y-90185951D01*
X123826500Y-90193862D01*
X123826500Y-92007476D01*
X123806498Y-92075597D01*
X123794142Y-92091779D01*
X123720960Y-92173056D01*
X123625473Y-92338444D01*
X123566458Y-92520072D01*
X123546496Y-92710000D01*
X122013156Y-92710000D01*
X121994852Y-92487361D01*
X121940431Y-92270702D01*
X121851354Y-92065840D01*
X121730014Y-91878277D01*
X121579670Y-91713051D01*
X121575619Y-91709852D01*
X121575615Y-91709848D01*
X121408414Y-91577800D01*
X121408410Y-91577798D01*
X121404359Y-91574598D01*
X121362569Y-91551529D01*
X121312598Y-91501097D01*
X121297826Y-91431654D01*
X121322942Y-91365248D01*
X121350294Y-91338641D01*
X121525328Y-91213792D01*
X121533200Y-91207139D01*
X121684052Y-91056812D01*
X121690730Y-91048965D01*
X121815003Y-90876020D01*
X121820313Y-90867183D01*
X121914670Y-90676267D01*
X121918469Y-90666672D01*
X121980377Y-90462910D01*
X121982555Y-90452837D01*
X121983986Y-90441962D01*
X121981775Y-90427778D01*
X121968617Y-90424000D01*
X119333225Y-90424000D01*
X119319694Y-90427973D01*
X119318257Y-90437966D01*
X119348565Y-90572446D01*
X119351645Y-90582275D01*
X119431770Y-90779603D01*
X119436413Y-90788794D01*
X119547694Y-90970388D01*
X119553777Y-90978699D01*
X119693213Y-91139667D01*
X119700580Y-91146883D01*
X119864434Y-91282916D01*
X119872881Y-91288831D01*
X119941969Y-91329203D01*
X119990693Y-91380842D01*
X120003764Y-91450625D01*
X119977033Y-91516396D01*
X119936584Y-91549752D01*
X119923607Y-91556507D01*
X119919474Y-91559610D01*
X119919471Y-91559612D01*
X119898132Y-91575634D01*
X119744965Y-91690635D01*
X119590629Y-91852138D01*
X119587715Y-91856410D01*
X119587714Y-91856411D01*
X119578300Y-91870211D01*
X119464743Y-92036680D01*
X119439163Y-92091787D01*
X119403716Y-92168153D01*
X119370688Y-92239305D01*
X119310989Y-92454570D01*
X119287251Y-92676695D01*
X119287548Y-92681848D01*
X119287548Y-92681851D01*
X119293011Y-92776590D01*
X119300110Y-92899715D01*
X119301247Y-92904761D01*
X119301248Y-92904767D01*
X119309955Y-92943402D01*
X119349222Y-93117639D01*
X119433266Y-93324616D01*
X119435965Y-93329020D01*
X119543072Y-93503803D01*
X119549987Y-93515088D01*
X119696250Y-93683938D01*
X119868126Y-93826632D01*
X119935163Y-93865805D01*
X119941445Y-93869476D01*
X119990169Y-93921114D01*
X120003240Y-93990897D01*
X119976509Y-94056669D01*
X119936055Y-94090027D01*
X119923607Y-94096507D01*
X119919474Y-94099610D01*
X119919471Y-94099612D01*
X119898132Y-94115634D01*
X119744965Y-94230635D01*
X119590629Y-94392138D01*
X119587715Y-94396410D01*
X119587714Y-94396411D01*
X119578300Y-94410211D01*
X119464743Y-94576680D01*
X119370688Y-94779305D01*
X119310989Y-94994570D01*
X119287251Y-95216695D01*
X119287548Y-95221848D01*
X119287548Y-95221851D01*
X119293011Y-95316590D01*
X119300110Y-95439715D01*
X119301247Y-95444761D01*
X119301248Y-95444767D01*
X119309955Y-95483402D01*
X119349222Y-95657639D01*
X119433266Y-95864616D01*
X119549987Y-96055088D01*
X119696250Y-96223938D01*
X119868126Y-96366632D01*
X119935163Y-96405805D01*
X119941445Y-96409476D01*
X119990169Y-96461114D01*
X120003240Y-96530897D01*
X119976509Y-96596669D01*
X119936055Y-96630027D01*
X119923607Y-96636507D01*
X119919474Y-96639610D01*
X119919471Y-96639612D01*
X119898132Y-96655634D01*
X119744965Y-96770635D01*
X119590629Y-96932138D01*
X119587715Y-96936410D01*
X119587714Y-96936411D01*
X119578300Y-96950211D01*
X119464743Y-97116680D01*
X119370688Y-97319305D01*
X119310989Y-97534570D01*
X119287251Y-97756695D01*
X115600584Y-97756695D01*
X115583543Y-97561913D01*
X115577593Y-97539707D01*
X115525707Y-97346067D01*
X115525706Y-97346065D01*
X115524284Y-97340757D01*
X115512092Y-97314610D01*
X115429849Y-97138238D01*
X115429846Y-97138233D01*
X115427523Y-97133251D01*
X115354098Y-97028389D01*
X115299357Y-96950211D01*
X115299355Y-96950208D01*
X115296198Y-96945700D01*
X115134300Y-96783802D01*
X115129792Y-96780645D01*
X115129789Y-96780643D01*
X115051611Y-96725902D01*
X114946749Y-96652477D01*
X114941767Y-96650154D01*
X114941762Y-96650151D01*
X114907543Y-96634195D01*
X114854258Y-96587278D01*
X114834797Y-96519001D01*
X114855339Y-96451041D01*
X114907543Y-96405805D01*
X114941762Y-96389849D01*
X114941767Y-96389846D01*
X114946749Y-96387523D01*
X115089555Y-96287529D01*
X115129789Y-96259357D01*
X115129792Y-96259355D01*
X115134300Y-96256198D01*
X115296198Y-96094300D01*
X115320923Y-96058990D01*
X115424366Y-95911257D01*
X115427523Y-95906749D01*
X115429846Y-95901767D01*
X115429849Y-95901762D01*
X115521961Y-95704225D01*
X115521961Y-95704224D01*
X115524284Y-95699243D01*
X115534150Y-95662425D01*
X115582119Y-95483402D01*
X115582119Y-95483400D01*
X115583543Y-95478087D01*
X115603498Y-95250000D01*
X115583543Y-95021913D01*
X115577593Y-94999707D01*
X115525707Y-94806067D01*
X115525706Y-94806065D01*
X115524284Y-94800757D01*
X115512092Y-94774610D01*
X115429849Y-94598238D01*
X115429846Y-94598233D01*
X115427523Y-94593251D01*
X115354098Y-94488389D01*
X115299357Y-94410211D01*
X115299355Y-94410208D01*
X115296198Y-94405700D01*
X115134300Y-94243802D01*
X115129792Y-94240645D01*
X115129789Y-94240643D01*
X115051611Y-94185902D01*
X114946749Y-94112477D01*
X114941767Y-94110154D01*
X114941762Y-94110151D01*
X114907543Y-94094195D01*
X114854258Y-94047278D01*
X114834797Y-93979001D01*
X114855339Y-93911041D01*
X114907543Y-93865805D01*
X114941762Y-93849849D01*
X114941767Y-93849846D01*
X114946749Y-93847523D01*
X115089555Y-93747529D01*
X115129789Y-93719357D01*
X115129792Y-93719355D01*
X115134300Y-93716198D01*
X115296198Y-93554300D01*
X115320923Y-93518990D01*
X115399032Y-93407438D01*
X115427523Y-93366749D01*
X115429846Y-93361767D01*
X115429849Y-93361762D01*
X115521961Y-93164225D01*
X115521961Y-93164224D01*
X115524284Y-93159243D01*
X115534150Y-93122425D01*
X115582119Y-92943402D01*
X115582119Y-92943400D01*
X115583543Y-92938087D01*
X115603498Y-92710000D01*
X115583543Y-92481913D01*
X115577593Y-92459707D01*
X115525707Y-92266067D01*
X115525706Y-92266065D01*
X115524284Y-92260757D01*
X115483389Y-92173056D01*
X115429849Y-92058238D01*
X115429846Y-92058233D01*
X115427523Y-92053251D01*
X115354098Y-91948389D01*
X115299357Y-91870211D01*
X115299355Y-91870208D01*
X115296198Y-91865700D01*
X115134300Y-91703802D01*
X115129792Y-91700645D01*
X115129789Y-91700643D01*
X115051611Y-91645902D01*
X114946749Y-91572477D01*
X114941767Y-91570154D01*
X114941762Y-91570151D01*
X114907543Y-91554195D01*
X114854258Y-91507278D01*
X114834797Y-91439001D01*
X114855339Y-91371041D01*
X114907543Y-91325805D01*
X114941762Y-91309849D01*
X114941767Y-91309846D01*
X114946749Y-91307523D01*
X115051611Y-91234098D01*
X115129789Y-91179357D01*
X115129792Y-91179355D01*
X115134300Y-91176198D01*
X115296198Y-91014300D01*
X115331557Y-90963803D01*
X115393023Y-90876020D01*
X115427523Y-90826749D01*
X115429846Y-90821767D01*
X115429849Y-90821762D01*
X115521961Y-90624225D01*
X115521961Y-90624224D01*
X115524284Y-90619243D01*
X115546785Y-90535271D01*
X115582119Y-90403402D01*
X115582119Y-90403400D01*
X115583543Y-90398087D01*
X115603498Y-90170000D01*
X115583543Y-89941913D01*
X115576600Y-89916000D01*
X115525707Y-89726067D01*
X115525706Y-89726065D01*
X115524284Y-89720757D01*
X115481100Y-89628148D01*
X115429849Y-89518238D01*
X115429846Y-89518233D01*
X115427523Y-89513251D01*
X115333437Y-89378882D01*
X115299357Y-89330211D01*
X115299355Y-89330208D01*
X115296198Y-89325700D01*
X115134300Y-89163802D01*
X115129792Y-89160645D01*
X115129789Y-89160643D01*
X115051611Y-89105902D01*
X114946749Y-89032477D01*
X114941767Y-89030154D01*
X114941762Y-89030151D01*
X114907543Y-89014195D01*
X114854258Y-88967278D01*
X114834797Y-88899001D01*
X114855339Y-88831041D01*
X114907543Y-88785805D01*
X114941762Y-88769849D01*
X114941767Y-88769846D01*
X114946749Y-88767523D01*
X115089555Y-88667529D01*
X115129789Y-88639357D01*
X115129792Y-88639355D01*
X115134300Y-88636198D01*
X115296198Y-88474300D01*
X115320923Y-88438990D01*
X115424366Y-88291257D01*
X115427523Y-88286749D01*
X115429846Y-88281767D01*
X115429849Y-88281762D01*
X115521961Y-88084225D01*
X115521961Y-88084224D01*
X115524284Y-88079243D01*
X115534150Y-88042425D01*
X115582119Y-87863402D01*
X115582119Y-87863400D01*
X115583543Y-87858087D01*
X115603498Y-87630000D01*
X115600584Y-87596695D01*
X119287251Y-87596695D01*
X119287548Y-87601848D01*
X119287548Y-87601851D01*
X119293011Y-87696590D01*
X119300110Y-87819715D01*
X119301247Y-87824761D01*
X119301248Y-87824767D01*
X119309955Y-87863402D01*
X119349222Y-88037639D01*
X119433266Y-88244616D01*
X119549987Y-88435088D01*
X119696250Y-88603938D01*
X119868126Y-88746632D01*
X119935163Y-88785805D01*
X119941955Y-88789774D01*
X119990679Y-88841412D01*
X120003750Y-88911195D01*
X119977019Y-88976967D01*
X119936562Y-89010327D01*
X119928457Y-89014546D01*
X119919738Y-89020036D01*
X119749433Y-89147905D01*
X119741726Y-89154748D01*
X119594590Y-89308717D01*
X119588104Y-89316727D01*
X119468098Y-89492649D01*
X119463000Y-89501623D01*
X119373338Y-89694783D01*
X119369775Y-89704470D01*
X119314389Y-89904183D01*
X119315912Y-89912607D01*
X119328292Y-89916000D01*
X121968344Y-89916000D01*
X121981875Y-89912027D01*
X121983180Y-89902947D01*
X121941214Y-89735875D01*
X121937894Y-89726124D01*
X121852972Y-89530814D01*
X121848105Y-89521739D01*
X121732426Y-89342926D01*
X121726136Y-89334757D01*
X121582806Y-89177240D01*
X121575273Y-89170215D01*
X121408139Y-89038222D01*
X121399556Y-89032520D01*
X121362602Y-89012120D01*
X121312631Y-88961687D01*
X121297859Y-88892245D01*
X121322975Y-88825839D01*
X121350327Y-88799232D01*
X121373797Y-88782491D01*
X121529860Y-88671173D01*
X121561788Y-88639357D01*
X121684435Y-88517137D01*
X121688096Y-88513489D01*
X121719498Y-88469789D01*
X121815435Y-88336277D01*
X121818453Y-88332077D01*
X121838628Y-88291257D01*
X121915136Y-88136453D01*
X121915137Y-88136451D01*
X121917430Y-88131811D01*
X121982370Y-87918069D01*
X122011529Y-87696590D01*
X122013156Y-87630000D01*
X121994852Y-87407361D01*
X121940431Y-87190702D01*
X121851354Y-86985840D01*
X121730014Y-86798277D01*
X121715024Y-86781803D01*
X121582798Y-86636488D01*
X121551746Y-86572642D01*
X121560141Y-86502143D01*
X121605317Y-86447375D01*
X121631761Y-86433706D01*
X121738297Y-86393767D01*
X121746705Y-86390615D01*
X121863261Y-86303261D01*
X121950615Y-86186705D01*
X122001745Y-86050316D01*
X122008500Y-85988134D01*
X122008500Y-84191866D01*
X122001745Y-84129684D01*
X121950615Y-83993295D01*
X121863261Y-83876739D01*
X121746705Y-83789385D01*
X121610316Y-83738255D01*
X121548134Y-83731500D01*
X119751866Y-83731500D01*
X119689684Y-83738255D01*
X119553295Y-83789385D01*
X119436739Y-83876739D01*
X119349385Y-83993295D01*
X119298255Y-84129684D01*
X119291500Y-84191866D01*
X119291500Y-85988134D01*
X119298255Y-86050316D01*
X119349385Y-86186705D01*
X119436739Y-86303261D01*
X119553295Y-86390615D01*
X119561704Y-86393767D01*
X119561705Y-86393768D01*
X119670451Y-86434535D01*
X119727216Y-86477176D01*
X119751916Y-86543738D01*
X119736709Y-86613087D01*
X119717316Y-86639568D01*
X119590629Y-86772138D01*
X119587715Y-86776410D01*
X119587714Y-86776411D01*
X119578300Y-86790211D01*
X119464743Y-86956680D01*
X119370688Y-87159305D01*
X119310989Y-87374570D01*
X119287251Y-87596695D01*
X115600584Y-87596695D01*
X115583543Y-87401913D01*
X115577593Y-87379707D01*
X115525707Y-87186067D01*
X115525706Y-87186065D01*
X115524284Y-87180757D01*
X115512092Y-87154610D01*
X115429849Y-86978238D01*
X115429846Y-86978233D01*
X115427523Y-86973251D01*
X115354098Y-86868389D01*
X115299357Y-86790211D01*
X115299355Y-86790208D01*
X115296198Y-86785700D01*
X115134300Y-86623802D01*
X115129792Y-86620645D01*
X115129789Y-86620643D01*
X114960553Y-86502143D01*
X114946749Y-86492477D01*
X114941767Y-86490154D01*
X114941762Y-86490151D01*
X114907543Y-86474195D01*
X114854258Y-86427278D01*
X114834797Y-86359001D01*
X114855339Y-86291041D01*
X114907543Y-86245805D01*
X114941762Y-86229849D01*
X114941767Y-86229846D01*
X114946749Y-86227523D01*
X115051611Y-86154098D01*
X115129789Y-86099357D01*
X115129792Y-86099355D01*
X115134300Y-86096198D01*
X115296198Y-85934300D01*
X115427523Y-85746749D01*
X115429846Y-85741767D01*
X115429849Y-85741762D01*
X115521961Y-85544225D01*
X115521961Y-85544224D01*
X115524284Y-85539243D01*
X115583543Y-85318087D01*
X115603498Y-85090000D01*
X115583543Y-84861913D01*
X115524284Y-84640757D01*
X115521961Y-84635775D01*
X115429849Y-84438238D01*
X115429846Y-84438233D01*
X115427523Y-84433251D01*
X115296198Y-84245700D01*
X115134300Y-84083802D01*
X115129792Y-84080645D01*
X115129789Y-84080643D01*
X114994780Y-83986109D01*
X114946749Y-83952477D01*
X114941767Y-83950154D01*
X114941762Y-83950151D01*
X114907543Y-83934195D01*
X114854258Y-83887278D01*
X114834797Y-83819001D01*
X114855339Y-83751041D01*
X114907543Y-83705805D01*
X114941762Y-83689849D01*
X114941767Y-83689846D01*
X114946749Y-83687523D01*
X115051611Y-83614098D01*
X115129789Y-83559357D01*
X115129792Y-83559355D01*
X115134300Y-83556198D01*
X115296198Y-83394300D01*
X115427523Y-83206749D01*
X115429846Y-83201767D01*
X115429849Y-83201762D01*
X115521961Y-83004225D01*
X115521961Y-83004224D01*
X115524284Y-82999243D01*
X115583543Y-82778087D01*
X115603498Y-82550000D01*
X115583543Y-82321913D01*
X115524284Y-82100757D01*
X115521961Y-82095775D01*
X115429849Y-81898238D01*
X115429846Y-81898233D01*
X115427523Y-81893251D01*
X115296198Y-81705700D01*
X115134300Y-81543802D01*
X115129792Y-81540645D01*
X115129789Y-81540643D01*
X115051611Y-81485902D01*
X114946749Y-81412477D01*
X114941767Y-81410154D01*
X114941762Y-81410151D01*
X114906951Y-81393919D01*
X114853666Y-81347002D01*
X114834205Y-81278725D01*
X114854747Y-81210765D01*
X114906951Y-81165529D01*
X114941511Y-81149414D01*
X114951007Y-81143931D01*
X115129467Y-81018972D01*
X115137875Y-81011916D01*
X115291916Y-80857875D01*
X115298972Y-80849467D01*
X115423931Y-80671007D01*
X115429414Y-80661511D01*
X115521490Y-80464053D01*
X115525236Y-80453761D01*
X115571394Y-80281497D01*
X115571058Y-80267401D01*
X115563116Y-80264000D01*
X113022033Y-80264000D01*
X113008502Y-80267973D01*
X113007273Y-80276522D01*
X113054764Y-80453761D01*
X113058510Y-80464053D01*
X113150586Y-80661511D01*
X113156069Y-80671007D01*
X113281028Y-80849467D01*
X113288084Y-80857875D01*
X113442125Y-81011916D01*
X113450533Y-81018972D01*
X113628993Y-81143931D01*
X113638489Y-81149414D01*
X113673049Y-81165529D01*
X113726334Y-81212446D01*
X113745795Y-81280723D01*
X113725253Y-81348683D01*
X113673049Y-81393919D01*
X113638238Y-81410151D01*
X113638233Y-81410154D01*
X113633251Y-81412477D01*
X113528389Y-81485902D01*
X113450211Y-81540643D01*
X113450208Y-81540645D01*
X113445700Y-81543802D01*
X113283802Y-81705700D01*
X113152477Y-81893251D01*
X113150154Y-81898233D01*
X113150151Y-81898238D01*
X113058039Y-82095775D01*
X113055716Y-82100757D01*
X112996457Y-82321913D01*
X112976502Y-82550000D01*
X112996457Y-82778087D01*
X113055716Y-82999243D01*
X113058039Y-83004224D01*
X113058039Y-83004225D01*
X113150151Y-83201762D01*
X113150154Y-83201767D01*
X113152477Y-83206749D01*
X113283802Y-83394300D01*
X113445700Y-83556198D01*
X113450208Y-83559355D01*
X113450211Y-83559357D01*
X113528389Y-83614098D01*
X113633251Y-83687523D01*
X113638233Y-83689846D01*
X113638238Y-83689849D01*
X113672457Y-83705805D01*
X113725742Y-83752722D01*
X113745203Y-83820999D01*
X113724661Y-83888959D01*
X113672457Y-83934195D01*
X113638238Y-83950151D01*
X113638233Y-83950154D01*
X113633251Y-83952477D01*
X113585220Y-83986109D01*
X113450211Y-84080643D01*
X113450208Y-84080645D01*
X113445700Y-84083802D01*
X113283802Y-84245700D01*
X113152477Y-84433251D01*
X113150154Y-84438233D01*
X113150151Y-84438238D01*
X113058039Y-84635775D01*
X113055716Y-84640757D01*
X112996457Y-84861913D01*
X112976502Y-85090000D01*
X112996457Y-85318087D01*
X113055716Y-85539243D01*
X113058039Y-85544224D01*
X113058039Y-85544225D01*
X113150151Y-85741762D01*
X113150154Y-85741767D01*
X113152477Y-85746749D01*
X113283802Y-85934300D01*
X113445700Y-86096198D01*
X113450208Y-86099355D01*
X113450211Y-86099357D01*
X113528389Y-86154098D01*
X113633251Y-86227523D01*
X113638233Y-86229846D01*
X113638238Y-86229849D01*
X113672457Y-86245805D01*
X113725742Y-86292722D01*
X113745203Y-86360999D01*
X113724661Y-86428959D01*
X113672457Y-86474195D01*
X113638238Y-86490151D01*
X113638233Y-86490154D01*
X113633251Y-86492477D01*
X113619447Y-86502143D01*
X113450211Y-86620643D01*
X113450208Y-86620645D01*
X113445700Y-86623802D01*
X113283802Y-86785700D01*
X113280645Y-86790208D01*
X113280643Y-86790211D01*
X113225902Y-86868389D01*
X113152477Y-86973251D01*
X113150154Y-86978233D01*
X113150151Y-86978238D01*
X113067908Y-87154610D01*
X113055716Y-87180757D01*
X113054294Y-87186065D01*
X113054293Y-87186067D01*
X113002407Y-87379707D01*
X112996457Y-87401913D01*
X112976502Y-87630000D01*
X112996457Y-87858087D01*
X112997881Y-87863400D01*
X112997881Y-87863402D01*
X113045851Y-88042425D01*
X113055716Y-88079243D01*
X113058039Y-88084224D01*
X113058039Y-88084225D01*
X113150151Y-88281762D01*
X113150154Y-88281767D01*
X113152477Y-88286749D01*
X113155634Y-88291257D01*
X113259078Y-88438990D01*
X113283802Y-88474300D01*
X113445700Y-88636198D01*
X113450208Y-88639355D01*
X113450211Y-88639357D01*
X113490445Y-88667529D01*
X113633251Y-88767523D01*
X113638233Y-88769846D01*
X113638238Y-88769849D01*
X113672457Y-88785805D01*
X113725742Y-88832722D01*
X113745203Y-88900999D01*
X113724661Y-88968959D01*
X113672457Y-89014195D01*
X113638238Y-89030151D01*
X113638233Y-89030154D01*
X113633251Y-89032477D01*
X113528389Y-89105902D01*
X113450211Y-89160643D01*
X113450208Y-89160645D01*
X113445700Y-89163802D01*
X113283802Y-89325700D01*
X113280645Y-89330208D01*
X113280643Y-89330211D01*
X113246563Y-89378882D01*
X113152477Y-89513251D01*
X113150154Y-89518233D01*
X113150151Y-89518238D01*
X113098900Y-89628148D01*
X113055716Y-89720757D01*
X113054294Y-89726065D01*
X113054293Y-89726067D01*
X113003400Y-89916000D01*
X112996457Y-89941913D01*
X112976502Y-90170000D01*
X112996457Y-90398087D01*
X112997881Y-90403400D01*
X112997881Y-90403402D01*
X113033216Y-90535271D01*
X113055716Y-90619243D01*
X113058039Y-90624224D01*
X113058039Y-90624225D01*
X113150151Y-90821762D01*
X113150154Y-90821767D01*
X113152477Y-90826749D01*
X113186977Y-90876020D01*
X113248444Y-90963803D01*
X113283802Y-91014300D01*
X113445700Y-91176198D01*
X113450208Y-91179355D01*
X113450211Y-91179357D01*
X113528389Y-91234098D01*
X113633251Y-91307523D01*
X113638233Y-91309846D01*
X113638238Y-91309849D01*
X113672457Y-91325805D01*
X113725742Y-91372722D01*
X113745203Y-91440999D01*
X113724661Y-91508959D01*
X113672457Y-91554195D01*
X113638238Y-91570151D01*
X113638233Y-91570154D01*
X113633251Y-91572477D01*
X113528389Y-91645902D01*
X113450211Y-91700643D01*
X113450208Y-91700645D01*
X113445700Y-91703802D01*
X113283802Y-91865700D01*
X113280645Y-91870208D01*
X113280643Y-91870211D01*
X113225902Y-91948389D01*
X113152477Y-92053251D01*
X113150154Y-92058233D01*
X113150151Y-92058238D01*
X113096611Y-92173056D01*
X113055716Y-92260757D01*
X113054294Y-92266065D01*
X113054293Y-92266067D01*
X113002407Y-92459707D01*
X112996457Y-92481913D01*
X112976502Y-92710000D01*
X112996457Y-92938087D01*
X112997881Y-92943400D01*
X112997881Y-92943402D01*
X113045851Y-93122425D01*
X113055716Y-93159243D01*
X113058039Y-93164224D01*
X113058039Y-93164225D01*
X113150151Y-93361762D01*
X113150154Y-93361767D01*
X113152477Y-93366749D01*
X113180968Y-93407438D01*
X113259078Y-93518990D01*
X113283802Y-93554300D01*
X113445700Y-93716198D01*
X113450208Y-93719355D01*
X113450211Y-93719357D01*
X113490445Y-93747529D01*
X113633251Y-93847523D01*
X113638233Y-93849846D01*
X113638238Y-93849849D01*
X113672457Y-93865805D01*
X113725742Y-93912722D01*
X113745203Y-93980999D01*
X113724661Y-94048959D01*
X113672457Y-94094195D01*
X113638238Y-94110151D01*
X113638233Y-94110154D01*
X113633251Y-94112477D01*
X113528389Y-94185902D01*
X113450211Y-94240643D01*
X113450208Y-94240645D01*
X113445700Y-94243802D01*
X113283802Y-94405700D01*
X113280645Y-94410208D01*
X113280643Y-94410211D01*
X113225902Y-94488389D01*
X113152477Y-94593251D01*
X113150154Y-94598233D01*
X113150151Y-94598238D01*
X113067908Y-94774610D01*
X113055716Y-94800757D01*
X113054294Y-94806065D01*
X113054293Y-94806067D01*
X113002407Y-94999707D01*
X112996457Y-95021913D01*
X112976502Y-95250000D01*
X112996457Y-95478087D01*
X112997881Y-95483400D01*
X112997881Y-95483402D01*
X113045851Y-95662425D01*
X113055716Y-95699243D01*
X113058039Y-95704224D01*
X113058039Y-95704225D01*
X113150151Y-95901762D01*
X113150154Y-95901767D01*
X113152477Y-95906749D01*
X113155634Y-95911257D01*
X113259078Y-96058990D01*
X113283802Y-96094300D01*
X113445700Y-96256198D01*
X113450208Y-96259355D01*
X113450211Y-96259357D01*
X113490445Y-96287529D01*
X113633251Y-96387523D01*
X113638233Y-96389846D01*
X113638238Y-96389849D01*
X113672457Y-96405805D01*
X113725742Y-96452722D01*
X113745203Y-96520999D01*
X113724661Y-96588959D01*
X113672457Y-96634195D01*
X113638238Y-96650151D01*
X113638233Y-96650154D01*
X113633251Y-96652477D01*
X113528389Y-96725902D01*
X113450211Y-96780643D01*
X113450208Y-96780645D01*
X113445700Y-96783802D01*
X113283802Y-96945700D01*
X113280645Y-96950208D01*
X113280643Y-96950211D01*
X113225902Y-97028389D01*
X113152477Y-97133251D01*
X113150154Y-97138233D01*
X113150151Y-97138238D01*
X113067908Y-97314610D01*
X113055716Y-97340757D01*
X113054294Y-97346065D01*
X113054293Y-97346067D01*
X113002407Y-97539707D01*
X112996457Y-97561913D01*
X112976502Y-97790000D01*
X112996457Y-98018087D01*
X112997881Y-98023400D01*
X112997881Y-98023402D01*
X113045851Y-98202425D01*
X113055716Y-98239243D01*
X113058039Y-98244224D01*
X113058039Y-98244225D01*
X113150151Y-98441762D01*
X113150154Y-98441767D01*
X113152477Y-98446749D01*
X113155634Y-98451257D01*
X113259078Y-98598990D01*
X113283802Y-98634300D01*
X113445700Y-98796198D01*
X113450208Y-98799355D01*
X113450211Y-98799357D01*
X113490445Y-98827529D01*
X113633251Y-98927523D01*
X113638233Y-98929846D01*
X113638238Y-98929849D01*
X113672457Y-98945805D01*
X113725742Y-98992722D01*
X113745203Y-99060999D01*
X113724661Y-99128959D01*
X113672457Y-99174195D01*
X113638238Y-99190151D01*
X113638233Y-99190154D01*
X113633251Y-99192477D01*
X113528389Y-99265902D01*
X113450211Y-99320643D01*
X113450208Y-99320645D01*
X113445700Y-99323802D01*
X113283802Y-99485700D01*
X113152477Y-99673251D01*
X113150154Y-99678233D01*
X113150151Y-99678238D01*
X113058039Y-99875775D01*
X113055716Y-99880757D01*
X112996457Y-100101913D01*
X112976502Y-100330000D01*
X112996457Y-100558087D01*
X113055716Y-100779243D01*
X113058039Y-100784224D01*
X113058039Y-100784225D01*
X113150151Y-100981762D01*
X113150154Y-100981767D01*
X113152477Y-100986749D01*
X113283802Y-101174300D01*
X113445700Y-101336198D01*
X113450208Y-101339355D01*
X113450211Y-101339357D01*
X113528389Y-101394098D01*
X113633251Y-101467523D01*
X113638233Y-101469846D01*
X113638238Y-101469849D01*
X113672457Y-101485805D01*
X113725742Y-101532722D01*
X113745203Y-101600999D01*
X113724661Y-101668959D01*
X113672457Y-101714195D01*
X113638238Y-101730151D01*
X113638233Y-101730154D01*
X113633251Y-101732477D01*
X113528389Y-101805902D01*
X113450211Y-101860643D01*
X113450208Y-101860645D01*
X113445700Y-101863802D01*
X113283802Y-102025700D01*
X113152477Y-102213251D01*
X113150154Y-102218233D01*
X113150151Y-102218238D01*
X113058039Y-102415775D01*
X113055716Y-102420757D01*
X112996457Y-102641913D01*
X112976502Y-102870000D01*
X112996457Y-103098087D01*
X113055716Y-103319243D01*
X113058039Y-103324224D01*
X113058039Y-103324225D01*
X113150151Y-103521762D01*
X113150154Y-103521767D01*
X113152477Y-103526749D01*
X113283802Y-103714300D01*
X113445700Y-103876198D01*
X113450208Y-103879355D01*
X113450211Y-103879357D01*
X113528389Y-103934098D01*
X113633251Y-104007523D01*
X113638233Y-104009846D01*
X113638238Y-104009849D01*
X113672457Y-104025805D01*
X113725742Y-104072722D01*
X113745203Y-104140999D01*
X113724661Y-104208959D01*
X113672457Y-104254195D01*
X113638238Y-104270151D01*
X113638233Y-104270154D01*
X113633251Y-104272477D01*
X113585220Y-104306109D01*
X113450211Y-104400643D01*
X113450208Y-104400645D01*
X113445700Y-104403802D01*
X113283802Y-104565700D01*
X113152477Y-104753251D01*
X113150154Y-104758233D01*
X113150151Y-104758238D01*
X113058039Y-104955775D01*
X113055716Y-104960757D01*
X112996457Y-105181913D01*
X112976502Y-105410000D01*
X112996457Y-105638087D01*
X113055716Y-105859243D01*
X113058039Y-105864224D01*
X113058039Y-105864225D01*
X113150151Y-106061762D01*
X113150154Y-106061767D01*
X113152477Y-106066749D01*
X113283802Y-106254300D01*
X113445700Y-106416198D01*
X113450208Y-106419355D01*
X113450211Y-106419357D01*
X113528389Y-106474098D01*
X113633251Y-106547523D01*
X113638233Y-106549846D01*
X113638238Y-106549849D01*
X113672457Y-106565805D01*
X113725742Y-106612722D01*
X113745203Y-106680999D01*
X113724661Y-106748959D01*
X113672457Y-106794195D01*
X113638238Y-106810151D01*
X113638233Y-106810154D01*
X113633251Y-106812477D01*
X113619447Y-106822143D01*
X113450211Y-106940643D01*
X113450208Y-106940645D01*
X113445700Y-106943802D01*
X113283802Y-107105700D01*
X113280645Y-107110208D01*
X113280643Y-107110211D01*
X113225902Y-107188389D01*
X113152477Y-107293251D01*
X113150154Y-107298233D01*
X113150151Y-107298238D01*
X113067908Y-107474610D01*
X113055716Y-107500757D01*
X113054294Y-107506065D01*
X113054293Y-107506067D01*
X113002407Y-107699707D01*
X112996457Y-107721913D01*
X112976502Y-107950000D01*
X112996457Y-108178087D01*
X112997881Y-108183400D01*
X112997881Y-108183402D01*
X113045851Y-108362425D01*
X113055716Y-108399243D01*
X113058039Y-108404224D01*
X113058039Y-108404225D01*
X113150151Y-108601762D01*
X113150154Y-108601767D01*
X113152477Y-108606749D01*
X113155634Y-108611257D01*
X113259078Y-108758990D01*
X113283802Y-108794300D01*
X113445700Y-108956198D01*
X113450208Y-108959355D01*
X113450211Y-108959357D01*
X113490445Y-108987529D01*
X113633251Y-109087523D01*
X113638233Y-109089846D01*
X113638238Y-109089849D01*
X113672457Y-109105805D01*
X113725742Y-109152722D01*
X113745203Y-109220999D01*
X113724661Y-109288959D01*
X113672457Y-109334195D01*
X113638238Y-109350151D01*
X113638233Y-109350154D01*
X113633251Y-109352477D01*
X113528389Y-109425902D01*
X113450211Y-109480643D01*
X113450208Y-109480645D01*
X113445700Y-109483802D01*
X113283802Y-109645700D01*
X113152477Y-109833251D01*
X113150154Y-109838233D01*
X113150151Y-109838238D01*
X113144287Y-109850814D01*
X113055716Y-110040757D01*
X113054294Y-110046065D01*
X113054293Y-110046067D01*
X113003400Y-110236000D01*
X112996457Y-110261913D01*
X112976502Y-110490000D01*
X112996457Y-110718087D01*
X112997881Y-110723400D01*
X112997881Y-110723402D01*
X113007143Y-110757966D01*
X113055716Y-110939243D01*
X113058039Y-110944224D01*
X113058039Y-110944225D01*
X113150151Y-111141762D01*
X113150154Y-111141767D01*
X113152477Y-111146749D01*
X113283802Y-111334300D01*
X113445700Y-111496198D01*
X113450208Y-111499355D01*
X113450211Y-111499357D01*
X113528389Y-111554098D01*
X113633251Y-111627523D01*
X113638233Y-111629846D01*
X113638238Y-111629849D01*
X113672457Y-111645805D01*
X113725742Y-111692722D01*
X113745203Y-111760999D01*
X113724661Y-111828959D01*
X113672457Y-111874195D01*
X113638238Y-111890151D01*
X113638233Y-111890154D01*
X113633251Y-111892477D01*
X113528389Y-111965902D01*
X113450211Y-112020643D01*
X113450208Y-112020645D01*
X113445700Y-112023802D01*
X113283802Y-112185700D01*
X113152477Y-112373251D01*
X113150154Y-112378233D01*
X113150151Y-112378238D01*
X113058039Y-112575775D01*
X113055716Y-112580757D01*
X112996457Y-112801913D01*
X112976502Y-113030000D01*
X100363498Y-113030000D01*
X100343543Y-112801913D01*
X100284284Y-112580757D01*
X100281961Y-112575775D01*
X100189849Y-112378238D01*
X100189846Y-112378233D01*
X100187523Y-112373251D01*
X100056198Y-112185700D01*
X99894300Y-112023802D01*
X99889792Y-112020645D01*
X99889789Y-112020643D01*
X99811611Y-111965902D01*
X99706749Y-111892477D01*
X99701767Y-111890154D01*
X99701762Y-111890151D01*
X99667543Y-111874195D01*
X99614258Y-111827278D01*
X99594797Y-111759001D01*
X99615339Y-111691041D01*
X99667543Y-111645805D01*
X99701762Y-111629849D01*
X99701767Y-111629846D01*
X99706749Y-111627523D01*
X99811611Y-111554098D01*
X99889789Y-111499357D01*
X99889792Y-111499355D01*
X99894300Y-111496198D01*
X100056198Y-111334300D01*
X100187523Y-111146749D01*
X100189846Y-111141767D01*
X100189849Y-111141762D01*
X100281961Y-110944225D01*
X100281961Y-110944224D01*
X100284284Y-110939243D01*
X100332858Y-110757966D01*
X100342119Y-110723402D01*
X100342119Y-110723400D01*
X100343543Y-110718087D01*
X100363498Y-110490000D01*
X100343543Y-110261913D01*
X100336600Y-110236000D01*
X100285707Y-110046067D01*
X100285706Y-110046065D01*
X100284284Y-110040757D01*
X100195713Y-109850814D01*
X100189849Y-109838238D01*
X100189846Y-109838233D01*
X100187523Y-109833251D01*
X100056198Y-109645700D01*
X99894300Y-109483802D01*
X99889792Y-109480645D01*
X99889789Y-109480643D01*
X99811611Y-109425902D01*
X99706749Y-109352477D01*
X99701767Y-109350154D01*
X99701762Y-109350151D01*
X99667543Y-109334195D01*
X99614258Y-109287278D01*
X99594797Y-109219001D01*
X99615339Y-109151041D01*
X99667543Y-109105805D01*
X99701762Y-109089849D01*
X99701767Y-109089846D01*
X99706749Y-109087523D01*
X99849555Y-108987529D01*
X99889789Y-108959357D01*
X99889792Y-108959355D01*
X99894300Y-108956198D01*
X100056198Y-108794300D01*
X100080923Y-108758990D01*
X100184366Y-108611257D01*
X100187523Y-108606749D01*
X100189846Y-108601767D01*
X100189849Y-108601762D01*
X100281961Y-108404225D01*
X100281961Y-108404224D01*
X100284284Y-108399243D01*
X100294150Y-108362425D01*
X100342119Y-108183402D01*
X100342119Y-108183400D01*
X100343543Y-108178087D01*
X100363498Y-107950000D01*
X100343543Y-107721913D01*
X100337593Y-107699707D01*
X100285707Y-107506067D01*
X100285706Y-107506065D01*
X100284284Y-107500757D01*
X100272092Y-107474610D01*
X100189849Y-107298238D01*
X100189846Y-107298233D01*
X100187523Y-107293251D01*
X100114098Y-107188389D01*
X100059357Y-107110211D01*
X100059355Y-107110208D01*
X100056198Y-107105700D01*
X99894300Y-106943802D01*
X99889792Y-106940645D01*
X99889789Y-106940643D01*
X99720553Y-106822143D01*
X99706749Y-106812477D01*
X99701767Y-106810154D01*
X99701762Y-106810151D01*
X99667543Y-106794195D01*
X99614258Y-106747278D01*
X99594797Y-106679001D01*
X99615339Y-106611041D01*
X99667543Y-106565805D01*
X99701762Y-106549849D01*
X99701767Y-106549846D01*
X99706749Y-106547523D01*
X99811611Y-106474098D01*
X99889789Y-106419357D01*
X99889792Y-106419355D01*
X99894300Y-106416198D01*
X100056198Y-106254300D01*
X100187523Y-106066749D01*
X100189846Y-106061767D01*
X100189849Y-106061762D01*
X100281961Y-105864225D01*
X100281961Y-105864224D01*
X100284284Y-105859243D01*
X100343543Y-105638087D01*
X100363498Y-105410000D01*
X100343543Y-105181913D01*
X100284284Y-104960757D01*
X100281961Y-104955775D01*
X100189849Y-104758238D01*
X100189846Y-104758233D01*
X100187523Y-104753251D01*
X100056198Y-104565700D01*
X99894300Y-104403802D01*
X99889792Y-104400645D01*
X99889789Y-104400643D01*
X99754780Y-104306109D01*
X99706749Y-104272477D01*
X99701767Y-104270154D01*
X99701762Y-104270151D01*
X99667543Y-104254195D01*
X99614258Y-104207278D01*
X99594797Y-104139001D01*
X99615339Y-104071041D01*
X99667543Y-104025805D01*
X99701762Y-104009849D01*
X99701767Y-104009846D01*
X99706749Y-104007523D01*
X99811611Y-103934098D01*
X99889789Y-103879357D01*
X99889792Y-103879355D01*
X99894300Y-103876198D01*
X100056198Y-103714300D01*
X100187523Y-103526749D01*
X100189846Y-103521767D01*
X100189849Y-103521762D01*
X100281961Y-103324225D01*
X100281961Y-103324224D01*
X100284284Y-103319243D01*
X100343543Y-103098087D01*
X100363498Y-102870000D01*
X100343543Y-102641913D01*
X100284284Y-102420757D01*
X100281961Y-102415775D01*
X100189849Y-102218238D01*
X100189846Y-102218233D01*
X100187523Y-102213251D01*
X100056198Y-102025700D01*
X99894300Y-101863802D01*
X99889792Y-101860645D01*
X99889789Y-101860643D01*
X99811611Y-101805902D01*
X99706749Y-101732477D01*
X99701767Y-101730154D01*
X99701762Y-101730151D01*
X99667543Y-101714195D01*
X99614258Y-101667278D01*
X99594797Y-101599001D01*
X99615339Y-101531041D01*
X99667543Y-101485805D01*
X99701762Y-101469849D01*
X99701767Y-101469846D01*
X99706749Y-101467523D01*
X99811611Y-101394098D01*
X99889789Y-101339357D01*
X99889792Y-101339355D01*
X99894300Y-101336198D01*
X100056198Y-101174300D01*
X100187523Y-100986749D01*
X100189846Y-100981767D01*
X100189849Y-100981762D01*
X100281961Y-100784225D01*
X100281961Y-100784224D01*
X100284284Y-100779243D01*
X100343543Y-100558087D01*
X100363498Y-100330000D01*
X100343543Y-100101913D01*
X100284284Y-99880757D01*
X100281961Y-99875775D01*
X100189849Y-99678238D01*
X100189846Y-99678233D01*
X100187523Y-99673251D01*
X100056198Y-99485700D01*
X99894300Y-99323802D01*
X99889792Y-99320645D01*
X99889789Y-99320643D01*
X99811611Y-99265902D01*
X99706749Y-99192477D01*
X99701767Y-99190154D01*
X99701762Y-99190151D01*
X99667543Y-99174195D01*
X99614258Y-99127278D01*
X99594797Y-99059001D01*
X99615339Y-98991041D01*
X99667543Y-98945805D01*
X99701762Y-98929849D01*
X99701767Y-98929846D01*
X99706749Y-98927523D01*
X99849555Y-98827529D01*
X99889789Y-98799357D01*
X99889792Y-98799355D01*
X99894300Y-98796198D01*
X100056198Y-98634300D01*
X100080923Y-98598990D01*
X100184366Y-98451257D01*
X100187523Y-98446749D01*
X100189846Y-98441767D01*
X100189849Y-98441762D01*
X100281961Y-98244225D01*
X100281961Y-98244224D01*
X100284284Y-98239243D01*
X100294150Y-98202425D01*
X100342119Y-98023402D01*
X100342119Y-98023400D01*
X100343543Y-98018087D01*
X100363498Y-97790000D01*
X100343543Y-97561913D01*
X100337593Y-97539707D01*
X100285707Y-97346067D01*
X100285706Y-97346065D01*
X100284284Y-97340757D01*
X100272092Y-97314610D01*
X100189849Y-97138238D01*
X100189846Y-97138233D01*
X100187523Y-97133251D01*
X100114098Y-97028389D01*
X100059357Y-96950211D01*
X100059355Y-96950208D01*
X100056198Y-96945700D01*
X99894300Y-96783802D01*
X99889792Y-96780645D01*
X99889789Y-96780643D01*
X99811611Y-96725902D01*
X99706749Y-96652477D01*
X99701767Y-96650154D01*
X99701762Y-96650151D01*
X99667543Y-96634195D01*
X99614258Y-96587278D01*
X99594797Y-96519001D01*
X99615339Y-96451041D01*
X99667543Y-96405805D01*
X99701762Y-96389849D01*
X99701767Y-96389846D01*
X99706749Y-96387523D01*
X99849555Y-96287529D01*
X99889789Y-96259357D01*
X99889792Y-96259355D01*
X99894300Y-96256198D01*
X100056198Y-96094300D01*
X100080923Y-96058990D01*
X100184366Y-95911257D01*
X100187523Y-95906749D01*
X100189846Y-95901767D01*
X100189849Y-95901762D01*
X100281961Y-95704225D01*
X100281961Y-95704224D01*
X100284284Y-95699243D01*
X100294150Y-95662425D01*
X100342119Y-95483402D01*
X100342119Y-95483400D01*
X100343543Y-95478087D01*
X100363498Y-95250000D01*
X100343543Y-95021913D01*
X100337593Y-94999707D01*
X100285707Y-94806067D01*
X100285706Y-94806065D01*
X100284284Y-94800757D01*
X100272092Y-94774610D01*
X100189849Y-94598238D01*
X100189846Y-94598233D01*
X100187523Y-94593251D01*
X100114098Y-94488389D01*
X100059357Y-94410211D01*
X100059355Y-94410208D01*
X100056198Y-94405700D01*
X99894300Y-94243802D01*
X99889792Y-94240645D01*
X99889789Y-94240643D01*
X99811611Y-94185902D01*
X99706749Y-94112477D01*
X99701767Y-94110154D01*
X99701762Y-94110151D01*
X99667543Y-94094195D01*
X99614258Y-94047278D01*
X99594797Y-93979001D01*
X99615339Y-93911041D01*
X99667543Y-93865805D01*
X99701762Y-93849849D01*
X99701767Y-93849846D01*
X99706749Y-93847523D01*
X99849555Y-93747529D01*
X99889789Y-93719357D01*
X99889792Y-93719355D01*
X99894300Y-93716198D01*
X100056198Y-93554300D01*
X100080923Y-93518990D01*
X100159032Y-93407438D01*
X100187523Y-93366749D01*
X100189846Y-93361767D01*
X100189849Y-93361762D01*
X100281961Y-93164225D01*
X100281961Y-93164224D01*
X100284284Y-93159243D01*
X100294150Y-93122425D01*
X100342119Y-92943402D01*
X100342119Y-92943400D01*
X100343543Y-92938087D01*
X100363498Y-92710000D01*
X100343543Y-92481913D01*
X100337593Y-92459707D01*
X100285707Y-92266067D01*
X100285706Y-92266065D01*
X100284284Y-92260757D01*
X100243389Y-92173056D01*
X100189849Y-92058238D01*
X100189846Y-92058233D01*
X100187523Y-92053251D01*
X100114098Y-91948389D01*
X100059357Y-91870211D01*
X100059355Y-91870208D01*
X100056198Y-91865700D01*
X99894300Y-91703802D01*
X99889792Y-91700645D01*
X99889789Y-91700643D01*
X99811611Y-91645902D01*
X99706749Y-91572477D01*
X99701767Y-91570154D01*
X99701762Y-91570151D01*
X99667543Y-91554195D01*
X99614258Y-91507278D01*
X99594797Y-91439001D01*
X99615339Y-91371041D01*
X99667543Y-91325805D01*
X99701762Y-91309849D01*
X99701767Y-91309846D01*
X99706749Y-91307523D01*
X99811611Y-91234098D01*
X99889789Y-91179357D01*
X99889792Y-91179355D01*
X99894300Y-91176198D01*
X100056198Y-91014300D01*
X100091557Y-90963803D01*
X100153023Y-90876020D01*
X100187523Y-90826749D01*
X100189846Y-90821767D01*
X100189849Y-90821762D01*
X100281961Y-90624225D01*
X100281961Y-90624224D01*
X100284284Y-90619243D01*
X100306785Y-90535271D01*
X100342119Y-90403402D01*
X100342119Y-90403400D01*
X100343543Y-90398087D01*
X100363498Y-90170000D01*
X100343543Y-89941913D01*
X100336600Y-89916000D01*
X100285707Y-89726067D01*
X100285706Y-89726065D01*
X100284284Y-89720757D01*
X100241100Y-89628148D01*
X100189849Y-89518238D01*
X100189846Y-89518233D01*
X100187523Y-89513251D01*
X100093437Y-89378882D01*
X100059357Y-89330211D01*
X100059355Y-89330208D01*
X100056198Y-89325700D01*
X99894300Y-89163802D01*
X99889792Y-89160645D01*
X99889789Y-89160643D01*
X99811611Y-89105902D01*
X99706749Y-89032477D01*
X99701767Y-89030154D01*
X99701762Y-89030151D01*
X99667543Y-89014195D01*
X99614258Y-88967278D01*
X99594797Y-88899001D01*
X99615339Y-88831041D01*
X99667543Y-88785805D01*
X99701762Y-88769849D01*
X99701767Y-88769846D01*
X99706749Y-88767523D01*
X99849555Y-88667529D01*
X99889789Y-88639357D01*
X99889792Y-88639355D01*
X99894300Y-88636198D01*
X100056198Y-88474300D01*
X100080923Y-88438990D01*
X100184366Y-88291257D01*
X100187523Y-88286749D01*
X100189846Y-88281767D01*
X100189849Y-88281762D01*
X100281961Y-88084225D01*
X100281961Y-88084224D01*
X100284284Y-88079243D01*
X100294150Y-88042425D01*
X100342119Y-87863402D01*
X100342119Y-87863400D01*
X100343543Y-87858087D01*
X100363498Y-87630000D01*
X100343543Y-87401913D01*
X100337593Y-87379707D01*
X100285707Y-87186067D01*
X100285706Y-87186065D01*
X100284284Y-87180757D01*
X100272092Y-87154610D01*
X100189849Y-86978238D01*
X100189846Y-86978233D01*
X100187523Y-86973251D01*
X100114098Y-86868389D01*
X100059357Y-86790211D01*
X100059355Y-86790208D01*
X100056198Y-86785700D01*
X99894300Y-86623802D01*
X99889792Y-86620645D01*
X99889789Y-86620643D01*
X99720553Y-86502143D01*
X99706749Y-86492477D01*
X99701767Y-86490154D01*
X99701762Y-86490151D01*
X99667543Y-86474195D01*
X99614258Y-86427278D01*
X99594797Y-86359001D01*
X99615339Y-86291041D01*
X99667543Y-86245805D01*
X99701762Y-86229849D01*
X99701767Y-86229846D01*
X99706749Y-86227523D01*
X99811611Y-86154098D01*
X99889789Y-86099357D01*
X99889792Y-86099355D01*
X99894300Y-86096198D01*
X100056198Y-85934300D01*
X100187523Y-85746749D01*
X100189846Y-85741767D01*
X100189849Y-85741762D01*
X100281961Y-85544225D01*
X100281961Y-85544224D01*
X100284284Y-85539243D01*
X100343543Y-85318087D01*
X100363498Y-85090000D01*
X100343543Y-84861913D01*
X100284284Y-84640757D01*
X100281961Y-84635775D01*
X100189849Y-84438238D01*
X100189846Y-84438233D01*
X100187523Y-84433251D01*
X100056198Y-84245700D01*
X99894300Y-84083802D01*
X99889792Y-84080645D01*
X99889789Y-84080643D01*
X99754780Y-83986109D01*
X99706749Y-83952477D01*
X99701767Y-83950154D01*
X99701762Y-83950151D01*
X99667543Y-83934195D01*
X99614258Y-83887278D01*
X99594797Y-83819001D01*
X99615339Y-83751041D01*
X99667543Y-83705805D01*
X99701762Y-83689849D01*
X99701767Y-83689846D01*
X99706749Y-83687523D01*
X99811611Y-83614098D01*
X99889789Y-83559357D01*
X99889792Y-83559355D01*
X99894300Y-83556198D01*
X100056198Y-83394300D01*
X100187523Y-83206749D01*
X100189846Y-83201767D01*
X100189849Y-83201762D01*
X100281961Y-83004225D01*
X100281961Y-83004224D01*
X100284284Y-82999243D01*
X100343543Y-82778087D01*
X100363498Y-82550000D01*
X100343543Y-82321913D01*
X100284284Y-82100757D01*
X100281961Y-82095775D01*
X100189849Y-81898238D01*
X100189846Y-81898233D01*
X100187523Y-81893251D01*
X100056198Y-81705700D01*
X99894300Y-81543802D01*
X99889792Y-81540645D01*
X99889789Y-81540643D01*
X99811611Y-81485902D01*
X99706749Y-81412477D01*
X99701767Y-81410154D01*
X99701762Y-81410151D01*
X99667543Y-81394195D01*
X99614258Y-81347278D01*
X99594797Y-81279001D01*
X99615339Y-81211041D01*
X99667543Y-81165805D01*
X99701762Y-81149849D01*
X99701767Y-81149846D01*
X99706749Y-81147523D01*
X99811611Y-81074098D01*
X99889789Y-81019357D01*
X99889792Y-81019355D01*
X99894300Y-81016198D01*
X100056198Y-80854300D01*
X100187523Y-80666749D01*
X100189846Y-80661767D01*
X100189849Y-80661762D01*
X100281961Y-80464225D01*
X100281961Y-80464224D01*
X100284284Y-80459243D01*
X100343543Y-80238087D01*
X100363498Y-80010000D01*
X100343543Y-79781913D01*
X100284284Y-79560757D01*
X100281961Y-79555775D01*
X100189849Y-79358238D01*
X100189846Y-79358233D01*
X100187523Y-79353251D01*
X100056198Y-79165700D01*
X99894300Y-79003802D01*
X99889789Y-79000643D01*
X99885576Y-78997108D01*
X99886527Y-78995974D01*
X99846529Y-78945929D01*
X99839224Y-78875310D01*
X99871258Y-78811951D01*
X99932462Y-78775970D01*
X99949517Y-78772918D01*
X99960316Y-78771745D01*
X100096705Y-78720615D01*
X100213261Y-78633261D01*
X100300615Y-78516705D01*
X100351745Y-78380316D01*
X100358500Y-78318134D01*
X100358500Y-77470000D01*
X112976502Y-77470000D01*
X112996457Y-77698087D01*
X112997881Y-77703400D01*
X112997881Y-77703402D01*
X113007143Y-77737966D01*
X113055716Y-77919243D01*
X113058039Y-77924224D01*
X113058039Y-77924225D01*
X113150151Y-78121762D01*
X113150154Y-78121767D01*
X113152477Y-78126749D01*
X113283802Y-78314300D01*
X113445700Y-78476198D01*
X113450208Y-78479355D01*
X113450211Y-78479357D01*
X113503550Y-78516705D01*
X113633251Y-78607523D01*
X113638233Y-78609846D01*
X113638238Y-78609849D01*
X113673049Y-78626081D01*
X113726334Y-78672998D01*
X113745795Y-78741275D01*
X113725253Y-78809235D01*
X113673049Y-78854471D01*
X113638489Y-78870586D01*
X113628993Y-78876069D01*
X113450533Y-79001028D01*
X113442125Y-79008084D01*
X113288084Y-79162125D01*
X113281028Y-79170533D01*
X113156069Y-79348993D01*
X113150586Y-79358489D01*
X113058510Y-79555947D01*
X113054764Y-79566239D01*
X113008606Y-79738503D01*
X113008942Y-79752599D01*
X113016884Y-79756000D01*
X115557967Y-79756000D01*
X115571498Y-79752027D01*
X115572727Y-79743478D01*
X115525236Y-79566239D01*
X115521490Y-79555947D01*
X115429414Y-79358489D01*
X115423931Y-79348993D01*
X115298972Y-79170533D01*
X115291916Y-79162125D01*
X115137875Y-79008084D01*
X115129467Y-79001028D01*
X114951007Y-78876069D01*
X114941511Y-78870586D01*
X114906951Y-78854471D01*
X114853666Y-78807554D01*
X114834205Y-78739277D01*
X114854747Y-78671317D01*
X114906951Y-78626081D01*
X114941762Y-78609849D01*
X114941767Y-78609846D01*
X114946749Y-78607523D01*
X115076450Y-78516705D01*
X115129789Y-78479357D01*
X115129792Y-78479355D01*
X115134300Y-78476198D01*
X115296198Y-78314300D01*
X115427523Y-78126749D01*
X115429846Y-78121767D01*
X115429849Y-78121762D01*
X115521961Y-77924225D01*
X115521961Y-77924224D01*
X115524284Y-77919243D01*
X115572858Y-77737966D01*
X119318257Y-77737966D01*
X119348565Y-77872446D01*
X119351645Y-77882275D01*
X119431770Y-78079603D01*
X119436413Y-78088794D01*
X119547694Y-78270388D01*
X119553777Y-78278699D01*
X119693213Y-78439667D01*
X119700580Y-78446883D01*
X119864434Y-78582916D01*
X119872881Y-78588831D01*
X120056756Y-78696279D01*
X120066042Y-78700729D01*
X120265001Y-78776703D01*
X120274899Y-78779579D01*
X120378250Y-78800606D01*
X120392299Y-78799410D01*
X120396000Y-78789065D01*
X120396000Y-78788517D01*
X120904000Y-78788517D01*
X120908064Y-78802359D01*
X120921478Y-78804393D01*
X120928184Y-78803534D01*
X120938262Y-78801392D01*
X121142255Y-78740191D01*
X121151842Y-78736433D01*
X121343095Y-78642739D01*
X121351945Y-78637464D01*
X121525328Y-78513792D01*
X121533200Y-78507139D01*
X121684052Y-78356812D01*
X121690730Y-78348965D01*
X121815003Y-78176020D01*
X121820313Y-78167183D01*
X121914670Y-77976267D01*
X121918469Y-77966672D01*
X121980377Y-77762910D01*
X121982555Y-77752837D01*
X121983986Y-77741962D01*
X121981775Y-77727778D01*
X121968617Y-77724000D01*
X120922115Y-77724000D01*
X120906876Y-77728475D01*
X120905671Y-77729865D01*
X120904000Y-77737548D01*
X120904000Y-78788517D01*
X120396000Y-78788517D01*
X120396000Y-77742115D01*
X120391525Y-77726876D01*
X120390135Y-77725671D01*
X120382452Y-77724000D01*
X119333225Y-77724000D01*
X119319694Y-77727973D01*
X119318257Y-77737966D01*
X115572858Y-77737966D01*
X115582119Y-77703402D01*
X115582119Y-77703400D01*
X115583543Y-77698087D01*
X115603498Y-77470000D01*
X115583543Y-77241913D01*
X115576600Y-77216000D01*
X115525707Y-77026067D01*
X115525706Y-77026065D01*
X115524284Y-77020757D01*
X115435713Y-76830814D01*
X115429849Y-76818238D01*
X115429846Y-76818233D01*
X115427523Y-76813251D01*
X115296198Y-76625700D01*
X115134300Y-76463802D01*
X115129792Y-76460645D01*
X115129789Y-76460643D01*
X115020230Y-76383929D01*
X114946749Y-76332477D01*
X114941767Y-76330154D01*
X114941762Y-76330151D01*
X114744225Y-76238039D01*
X114744224Y-76238039D01*
X114739243Y-76235716D01*
X114733935Y-76234294D01*
X114733933Y-76234293D01*
X114523402Y-76177881D01*
X114523400Y-76177881D01*
X114518087Y-76176457D01*
X114290000Y-76156502D01*
X114061913Y-76176457D01*
X114056600Y-76177881D01*
X114056598Y-76177881D01*
X113846067Y-76234293D01*
X113846065Y-76234294D01*
X113840757Y-76235716D01*
X113835776Y-76238039D01*
X113835775Y-76238039D01*
X113638238Y-76330151D01*
X113638233Y-76330154D01*
X113633251Y-76332477D01*
X113559770Y-76383929D01*
X113450211Y-76460643D01*
X113450208Y-76460645D01*
X113445700Y-76463802D01*
X113283802Y-76625700D01*
X113152477Y-76813251D01*
X113150154Y-76818233D01*
X113150151Y-76818238D01*
X113144287Y-76830814D01*
X113055716Y-77020757D01*
X113054294Y-77026065D01*
X113054293Y-77026067D01*
X113003400Y-77216000D01*
X112996457Y-77241913D01*
X112976502Y-77470000D01*
X100358500Y-77470000D01*
X100358500Y-76621866D01*
X100351745Y-76559684D01*
X100300615Y-76423295D01*
X100213261Y-76306739D01*
X100096705Y-76219385D01*
X99960316Y-76168255D01*
X99898134Y-76161500D01*
X98201866Y-76161500D01*
X98139684Y-76168255D01*
X98003295Y-76219385D01*
X97886739Y-76306739D01*
X97799385Y-76423295D01*
X97748255Y-76559684D01*
X97741500Y-76621866D01*
X97741500Y-78318134D01*
X97748255Y-78380316D01*
X97799385Y-78516705D01*
X97886739Y-78633261D01*
X98003295Y-78720615D01*
X98139684Y-78771745D01*
X98150474Y-78772917D01*
X98152606Y-78773803D01*
X98155222Y-78774425D01*
X98155121Y-78774848D01*
X98216035Y-78800155D01*
X98256463Y-78858517D01*
X98258922Y-78929471D01*
X98222629Y-78990490D01*
X98213969Y-78997489D01*
X98210207Y-79000646D01*
X98205700Y-79003802D01*
X98043802Y-79165700D01*
X97912477Y-79353251D01*
X97910154Y-79358233D01*
X97910151Y-79358238D01*
X97818039Y-79555775D01*
X97815716Y-79560757D01*
X97756457Y-79781913D01*
X97736502Y-80010000D01*
X97756457Y-80238087D01*
X97815716Y-80459243D01*
X97818039Y-80464224D01*
X97818039Y-80464225D01*
X97910151Y-80661762D01*
X97910154Y-80661767D01*
X97912477Y-80666749D01*
X98043802Y-80854300D01*
X98205700Y-81016198D01*
X98210208Y-81019355D01*
X98210211Y-81019357D01*
X98288389Y-81074098D01*
X98393251Y-81147523D01*
X98398233Y-81149846D01*
X98398238Y-81149849D01*
X98432457Y-81165805D01*
X98485742Y-81212722D01*
X98505203Y-81280999D01*
X98484661Y-81348959D01*
X98432457Y-81394195D01*
X98398238Y-81410151D01*
X98398233Y-81410154D01*
X98393251Y-81412477D01*
X98288389Y-81485902D01*
X98210211Y-81540643D01*
X98210208Y-81540645D01*
X98205700Y-81543802D01*
X98043802Y-81705700D01*
X97912477Y-81893251D01*
X97910154Y-81898233D01*
X97910151Y-81898238D01*
X97818039Y-82095775D01*
X97815716Y-82100757D01*
X97756457Y-82321913D01*
X97736502Y-82550000D01*
X97756457Y-82778087D01*
X97815716Y-82999243D01*
X97818039Y-83004224D01*
X97818039Y-83004225D01*
X97910151Y-83201762D01*
X97910154Y-83201767D01*
X97912477Y-83206749D01*
X98043802Y-83394300D01*
X98205700Y-83556198D01*
X98210208Y-83559355D01*
X98210211Y-83559357D01*
X98288389Y-83614098D01*
X98393251Y-83687523D01*
X98398233Y-83689846D01*
X98398238Y-83689849D01*
X98432457Y-83705805D01*
X98485742Y-83752722D01*
X98505203Y-83820999D01*
X98484661Y-83888959D01*
X98432457Y-83934195D01*
X98398238Y-83950151D01*
X98398233Y-83950154D01*
X98393251Y-83952477D01*
X98345220Y-83986109D01*
X98210211Y-84080643D01*
X98210208Y-84080645D01*
X98205700Y-84083802D01*
X98043802Y-84245700D01*
X97912477Y-84433251D01*
X97910154Y-84438233D01*
X97910151Y-84438238D01*
X97818039Y-84635775D01*
X97815716Y-84640757D01*
X97756457Y-84861913D01*
X97736502Y-85090000D01*
X97756457Y-85318087D01*
X97815716Y-85539243D01*
X97818039Y-85544224D01*
X97818039Y-85544225D01*
X97910151Y-85741762D01*
X97910154Y-85741767D01*
X97912477Y-85746749D01*
X98043802Y-85934300D01*
X98205700Y-86096198D01*
X98210208Y-86099355D01*
X98210211Y-86099357D01*
X98288389Y-86154098D01*
X98393251Y-86227523D01*
X98398233Y-86229846D01*
X98398238Y-86229849D01*
X98432457Y-86245805D01*
X98485742Y-86292722D01*
X98505203Y-86360999D01*
X98484661Y-86428959D01*
X98432457Y-86474195D01*
X98398238Y-86490151D01*
X98398233Y-86490154D01*
X98393251Y-86492477D01*
X98379447Y-86502143D01*
X98210211Y-86620643D01*
X98210208Y-86620645D01*
X98205700Y-86623802D01*
X98043802Y-86785700D01*
X98040645Y-86790208D01*
X98040643Y-86790211D01*
X97985902Y-86868389D01*
X97912477Y-86973251D01*
X97910154Y-86978233D01*
X97910151Y-86978238D01*
X97827908Y-87154610D01*
X97815716Y-87180757D01*
X97814294Y-87186065D01*
X97814293Y-87186067D01*
X97762407Y-87379707D01*
X97756457Y-87401913D01*
X97736502Y-87630000D01*
X97756457Y-87858087D01*
X97757881Y-87863400D01*
X97757881Y-87863402D01*
X97805851Y-88042425D01*
X97815716Y-88079243D01*
X97818039Y-88084224D01*
X97818039Y-88084225D01*
X97910151Y-88281762D01*
X97910154Y-88281767D01*
X97912477Y-88286749D01*
X97915634Y-88291257D01*
X98019078Y-88438990D01*
X98043802Y-88474300D01*
X98205700Y-88636198D01*
X98210208Y-88639355D01*
X98210211Y-88639357D01*
X98250445Y-88667529D01*
X98393251Y-88767523D01*
X98398233Y-88769846D01*
X98398238Y-88769849D01*
X98432457Y-88785805D01*
X98485742Y-88832722D01*
X98505203Y-88900999D01*
X98484661Y-88968959D01*
X98432457Y-89014195D01*
X98398238Y-89030151D01*
X98398233Y-89030154D01*
X98393251Y-89032477D01*
X98288389Y-89105902D01*
X98210211Y-89160643D01*
X98210208Y-89160645D01*
X98205700Y-89163802D01*
X98043802Y-89325700D01*
X98040645Y-89330208D01*
X98040643Y-89330211D01*
X98006563Y-89378882D01*
X97912477Y-89513251D01*
X97910154Y-89518233D01*
X97910151Y-89518238D01*
X97858900Y-89628148D01*
X97815716Y-89720757D01*
X97814294Y-89726065D01*
X97814293Y-89726067D01*
X97763400Y-89916000D01*
X97756457Y-89941913D01*
X97736502Y-90170000D01*
X97756457Y-90398087D01*
X97757881Y-90403400D01*
X97757881Y-90403402D01*
X97793216Y-90535271D01*
X97815716Y-90619243D01*
X97818039Y-90624224D01*
X97818039Y-90624225D01*
X97910151Y-90821762D01*
X97910154Y-90821767D01*
X97912477Y-90826749D01*
X97946977Y-90876020D01*
X98008444Y-90963803D01*
X98043802Y-91014300D01*
X98205700Y-91176198D01*
X98210208Y-91179355D01*
X98210211Y-91179357D01*
X98288389Y-91234098D01*
X98393251Y-91307523D01*
X98398233Y-91309846D01*
X98398238Y-91309849D01*
X98432457Y-91325805D01*
X98485742Y-91372722D01*
X98505203Y-91440999D01*
X98484661Y-91508959D01*
X98432457Y-91554195D01*
X98398238Y-91570151D01*
X98398233Y-91570154D01*
X98393251Y-91572477D01*
X98288389Y-91645902D01*
X98210211Y-91700643D01*
X98210208Y-91700645D01*
X98205700Y-91703802D01*
X98043802Y-91865700D01*
X98040645Y-91870208D01*
X98040643Y-91870211D01*
X97985902Y-91948389D01*
X97912477Y-92053251D01*
X97910154Y-92058233D01*
X97910151Y-92058238D01*
X97856611Y-92173056D01*
X97815716Y-92260757D01*
X97814294Y-92266065D01*
X97814293Y-92266067D01*
X97762407Y-92459707D01*
X97756457Y-92481913D01*
X97736502Y-92710000D01*
X97756457Y-92938087D01*
X97757881Y-92943400D01*
X97757881Y-92943402D01*
X97805851Y-93122425D01*
X97815716Y-93159243D01*
X97818039Y-93164224D01*
X97818039Y-93164225D01*
X97910151Y-93361762D01*
X97910154Y-93361767D01*
X97912477Y-93366749D01*
X97940968Y-93407438D01*
X98019078Y-93518990D01*
X98043802Y-93554300D01*
X98205700Y-93716198D01*
X98210208Y-93719355D01*
X98210211Y-93719357D01*
X98250445Y-93747529D01*
X98393251Y-93847523D01*
X98398233Y-93849846D01*
X98398238Y-93849849D01*
X98432457Y-93865805D01*
X98485742Y-93912722D01*
X98505203Y-93980999D01*
X98484661Y-94048959D01*
X98432457Y-94094195D01*
X98398238Y-94110151D01*
X98398233Y-94110154D01*
X98393251Y-94112477D01*
X98288389Y-94185902D01*
X98210211Y-94240643D01*
X98210208Y-94240645D01*
X98205700Y-94243802D01*
X98043802Y-94405700D01*
X98040645Y-94410208D01*
X98040643Y-94410211D01*
X97985902Y-94488389D01*
X97912477Y-94593251D01*
X97910154Y-94598233D01*
X97910151Y-94598238D01*
X97827908Y-94774610D01*
X97815716Y-94800757D01*
X97814294Y-94806065D01*
X97814293Y-94806067D01*
X97762407Y-94999707D01*
X97756457Y-95021913D01*
X97736502Y-95250000D01*
X97756457Y-95478087D01*
X97757881Y-95483400D01*
X97757881Y-95483402D01*
X97805851Y-95662425D01*
X97815716Y-95699243D01*
X97818039Y-95704224D01*
X97818039Y-95704225D01*
X97910151Y-95901762D01*
X97910154Y-95901767D01*
X97912477Y-95906749D01*
X97915634Y-95911257D01*
X98019078Y-96058990D01*
X98043802Y-96094300D01*
X98205700Y-96256198D01*
X98210208Y-96259355D01*
X98210211Y-96259357D01*
X98250445Y-96287529D01*
X98393251Y-96387523D01*
X98398233Y-96389846D01*
X98398238Y-96389849D01*
X98432457Y-96405805D01*
X98485742Y-96452722D01*
X98505203Y-96520999D01*
X98484661Y-96588959D01*
X98432457Y-96634195D01*
X98398238Y-96650151D01*
X98398233Y-96650154D01*
X98393251Y-96652477D01*
X98288389Y-96725902D01*
X98210211Y-96780643D01*
X98210208Y-96780645D01*
X98205700Y-96783802D01*
X98043802Y-96945700D01*
X98040645Y-96950208D01*
X98040643Y-96950211D01*
X97985902Y-97028389D01*
X97912477Y-97133251D01*
X97910154Y-97138233D01*
X97910151Y-97138238D01*
X97827908Y-97314610D01*
X97815716Y-97340757D01*
X97814294Y-97346065D01*
X97814293Y-97346067D01*
X97762407Y-97539707D01*
X97756457Y-97561913D01*
X97736502Y-97790000D01*
X97756457Y-98018087D01*
X97757881Y-98023400D01*
X97757881Y-98023402D01*
X97805851Y-98202425D01*
X97815716Y-98239243D01*
X97818039Y-98244224D01*
X97818039Y-98244225D01*
X97910151Y-98441762D01*
X97910154Y-98441767D01*
X97912477Y-98446749D01*
X97915634Y-98451257D01*
X98019078Y-98598990D01*
X98043802Y-98634300D01*
X98205700Y-98796198D01*
X98210208Y-98799355D01*
X98210211Y-98799357D01*
X98250445Y-98827529D01*
X98393251Y-98927523D01*
X98398233Y-98929846D01*
X98398238Y-98929849D01*
X98432457Y-98945805D01*
X98485742Y-98992722D01*
X98505203Y-99060999D01*
X98484661Y-99128959D01*
X98432457Y-99174195D01*
X98398238Y-99190151D01*
X98398233Y-99190154D01*
X98393251Y-99192477D01*
X98288389Y-99265902D01*
X98210211Y-99320643D01*
X98210208Y-99320645D01*
X98205700Y-99323802D01*
X98043802Y-99485700D01*
X97912477Y-99673251D01*
X97910154Y-99678233D01*
X97910151Y-99678238D01*
X97818039Y-99875775D01*
X97815716Y-99880757D01*
X97756457Y-100101913D01*
X97736502Y-100330000D01*
X97756457Y-100558087D01*
X97815716Y-100779243D01*
X97818039Y-100784224D01*
X97818039Y-100784225D01*
X97910151Y-100981762D01*
X97910154Y-100981767D01*
X97912477Y-100986749D01*
X98043802Y-101174300D01*
X98205700Y-101336198D01*
X98210208Y-101339355D01*
X98210211Y-101339357D01*
X98288389Y-101394098D01*
X98393251Y-101467523D01*
X98398233Y-101469846D01*
X98398238Y-101469849D01*
X98432457Y-101485805D01*
X98485742Y-101532722D01*
X98505203Y-101600999D01*
X98484661Y-101668959D01*
X98432457Y-101714195D01*
X98398238Y-101730151D01*
X98398233Y-101730154D01*
X98393251Y-101732477D01*
X98288389Y-101805902D01*
X98210211Y-101860643D01*
X98210208Y-101860645D01*
X98205700Y-101863802D01*
X98043802Y-102025700D01*
X97912477Y-102213251D01*
X97910154Y-102218233D01*
X97910151Y-102218238D01*
X97818039Y-102415775D01*
X97815716Y-102420757D01*
X97756457Y-102641913D01*
X97736502Y-102870000D01*
X97756457Y-103098087D01*
X97815716Y-103319243D01*
X97818039Y-103324224D01*
X97818039Y-103324225D01*
X97910151Y-103521762D01*
X97910154Y-103521767D01*
X97912477Y-103526749D01*
X98043802Y-103714300D01*
X98205700Y-103876198D01*
X98210208Y-103879355D01*
X98210211Y-103879357D01*
X98288389Y-103934098D01*
X98393251Y-104007523D01*
X98398233Y-104009846D01*
X98398238Y-104009849D01*
X98432457Y-104025805D01*
X98485742Y-104072722D01*
X98505203Y-104140999D01*
X98484661Y-104208959D01*
X98432457Y-104254195D01*
X98398238Y-104270151D01*
X98398233Y-104270154D01*
X98393251Y-104272477D01*
X98345220Y-104306109D01*
X98210211Y-104400643D01*
X98210208Y-104400645D01*
X98205700Y-104403802D01*
X98043802Y-104565700D01*
X97912477Y-104753251D01*
X97910154Y-104758233D01*
X97910151Y-104758238D01*
X97818039Y-104955775D01*
X97815716Y-104960757D01*
X97756457Y-105181913D01*
X97736502Y-105410000D01*
X97756457Y-105638087D01*
X97815716Y-105859243D01*
X97818039Y-105864224D01*
X97818039Y-105864225D01*
X97910151Y-106061762D01*
X97910154Y-106061767D01*
X97912477Y-106066749D01*
X98043802Y-106254300D01*
X98205700Y-106416198D01*
X98210208Y-106419355D01*
X98210211Y-106419357D01*
X98288389Y-106474098D01*
X98393251Y-106547523D01*
X98398233Y-106549846D01*
X98398238Y-106549849D01*
X98432457Y-106565805D01*
X98485742Y-106612722D01*
X98505203Y-106680999D01*
X98484661Y-106748959D01*
X98432457Y-106794195D01*
X98398238Y-106810151D01*
X98398233Y-106810154D01*
X98393251Y-106812477D01*
X98379447Y-106822143D01*
X98210211Y-106940643D01*
X98210208Y-106940645D01*
X98205700Y-106943802D01*
X98043802Y-107105700D01*
X98040645Y-107110208D01*
X98040643Y-107110211D01*
X97985902Y-107188389D01*
X97912477Y-107293251D01*
X97910154Y-107298233D01*
X97910151Y-107298238D01*
X97827908Y-107474610D01*
X97815716Y-107500757D01*
X97814294Y-107506065D01*
X97814293Y-107506067D01*
X97762407Y-107699707D01*
X97756457Y-107721913D01*
X97736502Y-107950000D01*
X97756457Y-108178087D01*
X97757881Y-108183400D01*
X97757881Y-108183402D01*
X97805851Y-108362425D01*
X97815716Y-108399243D01*
X97818039Y-108404224D01*
X97818039Y-108404225D01*
X97910151Y-108601762D01*
X97910154Y-108601767D01*
X97912477Y-108606749D01*
X97915634Y-108611257D01*
X98019078Y-108758990D01*
X98043802Y-108794300D01*
X98205700Y-108956198D01*
X98210208Y-108959355D01*
X98210211Y-108959357D01*
X98250445Y-108987529D01*
X98393251Y-109087523D01*
X98398233Y-109089846D01*
X98398238Y-109089849D01*
X98432457Y-109105805D01*
X98485742Y-109152722D01*
X98505203Y-109220999D01*
X98484661Y-109288959D01*
X98432457Y-109334195D01*
X98398238Y-109350151D01*
X98398233Y-109350154D01*
X98393251Y-109352477D01*
X98288389Y-109425902D01*
X98210211Y-109480643D01*
X98210208Y-109480645D01*
X98205700Y-109483802D01*
X98043802Y-109645700D01*
X97912477Y-109833251D01*
X97910154Y-109838233D01*
X97910151Y-109838238D01*
X97904287Y-109850814D01*
X97815716Y-110040757D01*
X97814294Y-110046065D01*
X97814293Y-110046067D01*
X97763400Y-110236000D01*
X97756457Y-110261913D01*
X97736502Y-110490000D01*
X97756457Y-110718087D01*
X97757881Y-110723400D01*
X97757881Y-110723402D01*
X97767143Y-110757966D01*
X97815716Y-110939243D01*
X97818039Y-110944224D01*
X97818039Y-110944225D01*
X97910151Y-111141762D01*
X97910154Y-111141767D01*
X97912477Y-111146749D01*
X98043802Y-111334300D01*
X98205700Y-111496198D01*
X98210208Y-111499355D01*
X98210211Y-111499357D01*
X98288389Y-111554098D01*
X98393251Y-111627523D01*
X98398233Y-111629846D01*
X98398238Y-111629849D01*
X98432457Y-111645805D01*
X98485742Y-111692722D01*
X98505203Y-111760999D01*
X98484661Y-111828959D01*
X98432457Y-111874195D01*
X98398238Y-111890151D01*
X98398233Y-111890154D01*
X98393251Y-111892477D01*
X98288389Y-111965902D01*
X98210211Y-112020643D01*
X98210208Y-112020645D01*
X98205700Y-112023802D01*
X98043802Y-112185700D01*
X97912477Y-112373251D01*
X97910154Y-112378233D01*
X97910151Y-112378238D01*
X97818039Y-112575775D01*
X97815716Y-112580757D01*
X97756457Y-112801913D01*
X97736502Y-113030000D01*
X94488500Y-113030000D01*
X94488500Y-75828134D01*
X119291500Y-75828134D01*
X119298255Y-75890316D01*
X119349385Y-76026705D01*
X119436739Y-76143261D01*
X119553295Y-76230615D01*
X119561704Y-76233767D01*
X119561705Y-76233768D01*
X119670960Y-76274726D01*
X119727725Y-76317367D01*
X119752425Y-76383929D01*
X119737218Y-76453278D01*
X119717825Y-76479759D01*
X119594590Y-76608717D01*
X119588104Y-76616727D01*
X119468098Y-76792649D01*
X119463000Y-76801623D01*
X119373338Y-76994783D01*
X119369775Y-77004470D01*
X119314389Y-77204183D01*
X119315912Y-77212607D01*
X119328292Y-77216000D01*
X121968344Y-77216000D01*
X121981875Y-77212027D01*
X121983180Y-77202947D01*
X121941214Y-77035875D01*
X121937894Y-77026124D01*
X121852972Y-76830814D01*
X121848105Y-76821739D01*
X121732426Y-76642926D01*
X121726136Y-76634757D01*
X121582293Y-76476677D01*
X121551241Y-76412831D01*
X121559635Y-76342333D01*
X121604812Y-76287564D01*
X121631256Y-76273895D01*
X121724258Y-76239030D01*
X121746705Y-76230615D01*
X121863261Y-76143261D01*
X121950615Y-76026705D01*
X122001745Y-75890316D01*
X122008500Y-75828134D01*
X125641500Y-75828134D01*
X125648255Y-75890316D01*
X125699385Y-76026705D01*
X125786739Y-76143261D01*
X125903295Y-76230615D01*
X126039684Y-76281745D01*
X126101866Y-76288500D01*
X127898134Y-76288500D01*
X127960316Y-76281745D01*
X128096705Y-76230615D01*
X128213261Y-76143261D01*
X128300615Y-76026705D01*
X128322799Y-75967529D01*
X128344598Y-75909382D01*
X128387240Y-75852618D01*
X128453802Y-75827918D01*
X128523150Y-75843126D01*
X128557817Y-75871114D01*
X128586250Y-75903938D01*
X128758126Y-76046632D01*
X128951000Y-76159338D01*
X128955825Y-76161180D01*
X128955826Y-76161181D01*
X128994576Y-76175978D01*
X129159692Y-76239030D01*
X129164760Y-76240061D01*
X129164763Y-76240062D01*
X129259862Y-76259410D01*
X129378597Y-76283567D01*
X129383772Y-76283757D01*
X129383774Y-76283757D01*
X129596673Y-76291564D01*
X129596677Y-76291564D01*
X129601837Y-76291753D01*
X129606957Y-76291097D01*
X129606959Y-76291097D01*
X129818288Y-76264025D01*
X129818289Y-76264025D01*
X129823416Y-76263368D01*
X129828366Y-76261883D01*
X130032429Y-76200661D01*
X130032434Y-76200659D01*
X130037384Y-76199174D01*
X130237994Y-76100896D01*
X130419860Y-75971173D01*
X130578096Y-75813489D01*
X130708453Y-75632077D01*
X130709640Y-75632930D01*
X130756960Y-75589362D01*
X130826897Y-75577145D01*
X130892338Y-75604678D01*
X130920166Y-75636511D01*
X130977694Y-75730388D01*
X130983777Y-75738699D01*
X131123213Y-75899667D01*
X131130580Y-75906883D01*
X131294434Y-76042916D01*
X131302881Y-76048831D01*
X131486756Y-76156279D01*
X131496042Y-76160729D01*
X131695001Y-76236703D01*
X131704899Y-76239579D01*
X131808250Y-76260606D01*
X131822299Y-76259410D01*
X131826000Y-76249065D01*
X131826000Y-76248517D01*
X132334000Y-76248517D01*
X132338064Y-76262359D01*
X132351478Y-76264393D01*
X132358184Y-76263534D01*
X132368262Y-76261392D01*
X132572255Y-76200191D01*
X132581842Y-76196433D01*
X132773095Y-76102739D01*
X132781945Y-76097464D01*
X132955328Y-75973792D01*
X132963200Y-75967139D01*
X133114052Y-75816812D01*
X133120730Y-75808965D01*
X133248022Y-75631819D01*
X133249279Y-75632722D01*
X133296373Y-75589362D01*
X133366311Y-75577145D01*
X133431751Y-75604678D01*
X133459579Y-75636511D01*
X133519987Y-75735088D01*
X133666250Y-75903938D01*
X133838126Y-76046632D01*
X134031000Y-76159338D01*
X134035825Y-76161180D01*
X134035826Y-76161181D01*
X134074576Y-76175978D01*
X134239692Y-76239030D01*
X134244760Y-76240061D01*
X134244763Y-76240062D01*
X134339862Y-76259410D01*
X134458597Y-76283567D01*
X134463772Y-76283757D01*
X134463774Y-76283757D01*
X134676673Y-76291564D01*
X134676677Y-76291564D01*
X134681837Y-76291753D01*
X134686957Y-76291097D01*
X134686959Y-76291097D01*
X134898288Y-76264025D01*
X134898289Y-76264025D01*
X134903416Y-76263368D01*
X134908366Y-76261883D01*
X135112429Y-76200661D01*
X135112434Y-76200659D01*
X135117384Y-76199174D01*
X135317994Y-76100896D01*
X135499860Y-75971173D01*
X135658096Y-75813489D01*
X135788453Y-75632077D01*
X135789776Y-75633028D01*
X135836645Y-75589857D01*
X135906580Y-75577625D01*
X135972026Y-75605144D01*
X135999875Y-75636994D01*
X136059987Y-75735088D01*
X136206250Y-75903938D01*
X136378126Y-76046632D01*
X136571000Y-76159338D01*
X136575825Y-76161180D01*
X136575826Y-76161181D01*
X136614576Y-76175978D01*
X136779692Y-76239030D01*
X136784760Y-76240061D01*
X136784763Y-76240062D01*
X136879862Y-76259410D01*
X136998597Y-76283567D01*
X137003772Y-76283757D01*
X137003774Y-76283757D01*
X137216673Y-76291564D01*
X137216677Y-76291564D01*
X137221837Y-76291753D01*
X137226957Y-76291097D01*
X137226959Y-76291097D01*
X137438288Y-76264025D01*
X137438289Y-76264025D01*
X137443416Y-76263368D01*
X137448366Y-76261883D01*
X137652429Y-76200661D01*
X137652434Y-76200659D01*
X137657384Y-76199174D01*
X137857994Y-76100896D01*
X138039860Y-75971173D01*
X138198096Y-75813489D01*
X138328453Y-75632077D01*
X138329776Y-75633028D01*
X138376645Y-75589857D01*
X138446580Y-75577625D01*
X138512026Y-75605144D01*
X138539875Y-75636994D01*
X138599987Y-75735088D01*
X138746250Y-75903938D01*
X138918126Y-76046632D01*
X139111000Y-76159338D01*
X139115825Y-76161180D01*
X139115826Y-76161181D01*
X139154576Y-76175978D01*
X139319692Y-76239030D01*
X139324760Y-76240061D01*
X139324763Y-76240062D01*
X139419862Y-76259410D01*
X139538597Y-76283567D01*
X139543772Y-76283757D01*
X139543774Y-76283757D01*
X139756673Y-76291564D01*
X139756677Y-76291564D01*
X139761837Y-76291753D01*
X139766957Y-76291097D01*
X139766959Y-76291097D01*
X139978288Y-76264025D01*
X139978289Y-76264025D01*
X139983416Y-76263368D01*
X139988366Y-76261883D01*
X140192429Y-76200661D01*
X140192434Y-76200659D01*
X140197384Y-76199174D01*
X140397994Y-76100896D01*
X140579860Y-75971173D01*
X140738096Y-75813489D01*
X140868453Y-75632077D01*
X140881995Y-75604678D01*
X140965136Y-75436453D01*
X140965137Y-75436451D01*
X140967430Y-75431811D01*
X141032370Y-75218069D01*
X141061529Y-74996590D01*
X141063156Y-74930000D01*
X141044852Y-74707361D01*
X140990431Y-74490702D01*
X140901354Y-74285840D01*
X140780014Y-74098277D01*
X140629670Y-73933051D01*
X140625619Y-73929852D01*
X140625615Y-73929848D01*
X140458414Y-73797800D01*
X140458410Y-73797798D01*
X140454359Y-73794598D01*
X140418028Y-73774542D01*
X140402136Y-73765769D01*
X140258789Y-73686638D01*
X140253920Y-73684914D01*
X140253916Y-73684912D01*
X140053087Y-73613795D01*
X140053083Y-73613794D01*
X140048212Y-73612069D01*
X140043119Y-73611162D01*
X140043116Y-73611161D01*
X139833373Y-73573800D01*
X139833367Y-73573799D01*
X139828284Y-73572894D01*
X139754452Y-73571992D01*
X139610081Y-73570228D01*
X139610079Y-73570228D01*
X139604911Y-73570165D01*
X139384091Y-73603955D01*
X139171756Y-73673357D01*
X138973607Y-73776507D01*
X138969474Y-73779610D01*
X138969471Y-73779612D01*
X138799100Y-73907530D01*
X138794965Y-73910635D01*
X138791393Y-73914373D01*
X138683729Y-74027037D01*
X138640629Y-74072138D01*
X138533201Y-74229621D01*
X138478293Y-74274621D01*
X138407768Y-74282792D01*
X138344021Y-74251538D01*
X138323324Y-74227054D01*
X138242822Y-74102617D01*
X138242820Y-74102614D01*
X138240014Y-74098277D01*
X138089670Y-73933051D01*
X138085619Y-73929852D01*
X138085615Y-73929848D01*
X137918414Y-73797800D01*
X137918410Y-73797798D01*
X137914359Y-73794598D01*
X137878028Y-73774542D01*
X137862136Y-73765769D01*
X137718789Y-73686638D01*
X137713920Y-73684914D01*
X137713916Y-73684912D01*
X137513087Y-73613795D01*
X137513083Y-73613794D01*
X137508212Y-73612069D01*
X137503119Y-73611162D01*
X137503116Y-73611161D01*
X137293373Y-73573800D01*
X137293367Y-73573799D01*
X137288284Y-73572894D01*
X137214452Y-73571992D01*
X137070081Y-73570228D01*
X137070079Y-73570228D01*
X137064911Y-73570165D01*
X136844091Y-73603955D01*
X136631756Y-73673357D01*
X136433607Y-73776507D01*
X136429474Y-73779610D01*
X136429471Y-73779612D01*
X136259100Y-73907530D01*
X136254965Y-73910635D01*
X136251393Y-73914373D01*
X136143729Y-74027037D01*
X136100629Y-74072138D01*
X135993201Y-74229621D01*
X135938293Y-74274621D01*
X135867768Y-74282792D01*
X135804021Y-74251538D01*
X135783324Y-74227054D01*
X135702822Y-74102617D01*
X135702820Y-74102614D01*
X135700014Y-74098277D01*
X135549670Y-73933051D01*
X135545619Y-73929852D01*
X135545615Y-73929848D01*
X135378414Y-73797800D01*
X135378410Y-73797798D01*
X135374359Y-73794598D01*
X135338028Y-73774542D01*
X135322136Y-73765769D01*
X135178789Y-73686638D01*
X135173920Y-73684914D01*
X135173916Y-73684912D01*
X134973087Y-73613795D01*
X134973083Y-73613794D01*
X134968212Y-73612069D01*
X134963119Y-73611162D01*
X134963116Y-73611161D01*
X134753373Y-73573800D01*
X134753367Y-73573799D01*
X134748284Y-73572894D01*
X134674452Y-73571992D01*
X134530081Y-73570228D01*
X134530079Y-73570228D01*
X134524911Y-73570165D01*
X134304091Y-73603955D01*
X134091756Y-73673357D01*
X133893607Y-73776507D01*
X133889474Y-73779610D01*
X133889471Y-73779612D01*
X133719100Y-73907530D01*
X133714965Y-73910635D01*
X133711393Y-73914373D01*
X133603729Y-74027037D01*
X133560629Y-74072138D01*
X133453204Y-74229618D01*
X133452898Y-74230066D01*
X133397987Y-74275069D01*
X133327462Y-74283240D01*
X133263715Y-74251986D01*
X133243018Y-74227502D01*
X133162426Y-74102926D01*
X133156136Y-74094757D01*
X133012806Y-73937240D01*
X133005273Y-73930215D01*
X132838139Y-73798222D01*
X132829552Y-73792517D01*
X132643117Y-73689599D01*
X132633705Y-73685369D01*
X132432959Y-73614280D01*
X132422988Y-73611646D01*
X132351837Y-73598972D01*
X132338540Y-73600432D01*
X132334000Y-73614989D01*
X132334000Y-76248517D01*
X131826000Y-76248517D01*
X131826000Y-73613102D01*
X131822082Y-73599758D01*
X131807806Y-73597771D01*
X131769324Y-73603660D01*
X131759288Y-73606051D01*
X131556868Y-73672212D01*
X131547359Y-73676209D01*
X131358463Y-73774542D01*
X131349738Y-73780036D01*
X131179433Y-73907905D01*
X131171726Y-73914748D01*
X131024590Y-74068717D01*
X131018109Y-74076722D01*
X130913498Y-74230074D01*
X130858587Y-74275076D01*
X130788062Y-74283247D01*
X130724315Y-74251993D01*
X130703618Y-74227509D01*
X130622822Y-74102617D01*
X130622820Y-74102614D01*
X130620014Y-74098277D01*
X130469670Y-73933051D01*
X130465619Y-73929852D01*
X130465615Y-73929848D01*
X130298414Y-73797800D01*
X130298410Y-73797798D01*
X130294359Y-73794598D01*
X130258028Y-73774542D01*
X130242136Y-73765769D01*
X130098789Y-73686638D01*
X130093920Y-73684914D01*
X130093916Y-73684912D01*
X129893087Y-73613795D01*
X129893083Y-73613794D01*
X129888212Y-73612069D01*
X129883119Y-73611162D01*
X129883116Y-73611161D01*
X129673373Y-73573800D01*
X129673367Y-73573799D01*
X129668284Y-73572894D01*
X129594452Y-73571992D01*
X129450081Y-73570228D01*
X129450079Y-73570228D01*
X129444911Y-73570165D01*
X129224091Y-73603955D01*
X129011756Y-73673357D01*
X128813607Y-73776507D01*
X128809474Y-73779610D01*
X128809471Y-73779612D01*
X128639100Y-73907530D01*
X128634965Y-73910635D01*
X128578537Y-73969684D01*
X128554283Y-73995064D01*
X128492759Y-74030494D01*
X128421846Y-74027037D01*
X128364060Y-73985791D01*
X128345207Y-73952243D01*
X128303767Y-73841703D01*
X128300615Y-73833295D01*
X128213261Y-73716739D01*
X128096705Y-73629385D01*
X127960316Y-73578255D01*
X127898134Y-73571500D01*
X126101866Y-73571500D01*
X126039684Y-73578255D01*
X125903295Y-73629385D01*
X125786739Y-73716739D01*
X125699385Y-73833295D01*
X125648255Y-73969684D01*
X125641500Y-74031866D01*
X125641500Y-75828134D01*
X122008500Y-75828134D01*
X122008500Y-74031866D01*
X122001745Y-73969684D01*
X121950615Y-73833295D01*
X121863261Y-73716739D01*
X121746705Y-73629385D01*
X121610316Y-73578255D01*
X121548134Y-73571500D01*
X119751866Y-73571500D01*
X119689684Y-73578255D01*
X119553295Y-73629385D01*
X119436739Y-73716739D01*
X119349385Y-73833295D01*
X119298255Y-73969684D01*
X119291500Y-74031866D01*
X119291500Y-75828134D01*
X94488500Y-75828134D01*
X94488500Y-70484500D01*
X94508502Y-70416379D01*
X94562158Y-70369886D01*
X94614500Y-70358500D01*
X141605500Y-70358500D01*
X141673621Y-70378502D01*
G37*
G04 #@! TD.AperFunction*
M02*
